<?xml version="1.0" encoding="UTF-8"?>
<svg id="Layer_1" data-name="Layer 1" xmlns="http://www.w3.org/2000/svg" xmlns:xlink="http://www.w3.org/1999/xlink" version="1.1" viewBox="0 0 792 612">
  <defs>
    <style>
      .cls-1 {
        fill: url(#linear-gradient);
      }

      .cls-1, .cls-2, .cls-3, .cls-4, .cls-5, .cls-6 {
        stroke-width: 0px;
      }

      .cls-2, .cls-7, .cls-8 {
        fill: #1a8cb5;
      }

      .cls-3 {
        fill: #000;
      }

      .cls-4 {
        fill: #1b62ae;
      }

      .cls-7 {
        stroke-width: 1px;
      }

      .cls-7, .cls-8 {
        stroke: #1a8cb5;
        stroke-linecap: round;
        stroke-linejoin: round;
      }

      .cls-5 {
        fill: #89b8e3;
      }

      .cls-8 {
        stroke-width: 2.1px;
      }

      .cls-6 {
        fill: #fff;
      }
    </style>
    <linearGradient id="linear-gradient" x1="689.9" y1="368.8" x2="689.9" y2="237.7" gradientTransform="translate(791.5 608.6) rotate(-180)" gradientUnits="userSpaceOnUse">
      <stop offset="0" stop-color="#055694"/>
      <stop offset=".2" stop-color="#1f6fad"/>
      <stop offset=".5" stop-color="#3383c0"/>
      <stop offset=".7" stop-color="#3f8fcc"/>
      <stop offset="1" stop-color="#4493d0"/>
    </linearGradient>
  </defs>
  <g>
    <line class="cls-8" x1="182.6" y1="240.5" x2="182.6" y2="367.8"/>
    <line class="cls-7" x1="187.9" y1="240.5" x2="187.9" y2="367.8"/>
    <line class="cls-8" x1="193.1" y1="240.5" x2="193.1" y2="367.8"/>
  </g>
  <g>
    <path class="cls-4" d="M208.5,265.8h5.9l14.7,37.2,14.6-37.2h5.9v42.4h-4v-36.6h-.1l-14.5,36.6h-3.8l-14.5-36.6h-.1v36.6h-4v-42.4Z"/>
    <path class="cls-4" d="M257.8,265.8h4v42.4h-4v-42.4Z"/>
    <path class="cls-4" d="M270,265.8h4v22.8l24.6-22.8h5.5l-18.9,17.5,19.8,24.9h-5.2l-17.6-22.1-8.1,7.5v14.5h-4v-42.4Z"/>
    <path class="cls-4" d="M307.5,265.8h4v26.2c0,9.9,4.6,13.6,12.4,13.6s12.5-3.7,12.5-13.6v-26.2h4v27.1c0,8.7-4.7,16.1-16.5,16.1s-16.4-7.4-16.4-16.1v-27.1Z"/>
    <path class="cls-4" d="M347.1,265.8h4v38.9h23.7v3.4h-27.8v-42.4Z"/>
    <path class="cls-4" d="M379.9,294.2c-.2,8.7,6.1,11.4,13.8,11.4s11.2-2.4,11.2-8.6-4.8-6.7-8.7-7.7l-9.4-2.3c-5-1.2-9.6-3.6-9.6-10.2s2.7-11.9,14.6-11.9,15.7,4.5,15.7,13.2h-4c-.2-6.5-5.6-9.7-11.6-9.7s-10.6,2.1-10.6,8.4,3,5.6,6.4,6.5l10.3,2.6c6,1.6,11,4.2,11,11.2s-1.2,12.1-16.2,12.1-17.4-4.5-16.9-14.8h4Z"/>
    <path class="cls-4" d="M415.1,265.8h4v22.8l24.6-22.8h5.5l-18.9,17.5,19.8,24.9h-5.2l-17.6-22.1-8.1,7.5v14.5h-4v-42.4Z"/>
    <path class="cls-4" d="M452.9,265.8h4v42.4h-4v-42.4Z"/>
    <path class="cls-4" d="M499.5,265.8h4.5l16.6,42.4h-4.3l-5.2-13.2h-19.3l-5.1,13.2h-4.3l17.1-42.4ZM493.1,291.5h16.7l-8.2-21.7-8.5,21.7Z"/>
    <path class="cls-4" d="M525.1,265.8h19.4c7,0,12.9,3.4,12.9,11s-2.8,9.7-8.3,10.8h0c5.5.8,7.1,4.6,7.4,9.7.2,2.9.2,8.7,2,10.9h-4.5c-1-1.7-1-4.8-1.1-6.6-.4-5.9-.8-12.5-8.5-12.2h-15.3v18.8h-4v-42.4ZM529.1,285.9h15.1c4.9,0,9.1-3.1,9.1-8.3s-3.1-8.4-9.1-8.4h-15.1v16.7Z"/>
    <path class="cls-4" d="M594.7,278.6c-1.4-6.5-6.8-10.3-13-10.3-11.2,0-16,9.4-16,18.6s4.7,18.6,16,18.6,12.8-6.1,13.6-13.6h4c-1.1,10.4-7.7,17-17.6,17s-20-10.5-20-22.1,6.6-22.1,20-22.1,16,4.8,17,13.7h-4Z"/>
    <path class="cls-4" d="M604.6,265.8h4v18.4h25.2v-18.4h4v42.4h-4v-20.5h-25.2v20.5h-4v-42.4Z"/>
    <path class="cls-4" d="M646.7,265.8h4v42.4h-4v-42.4Z"/>
    <path class="cls-4" d="M655.4,265.8h4.3l13.8,37.9h.1l13.7-37.9h4.3l-15.7,42.4h-4.7l-15.7-42.4Z"/>
    <path class="cls-4" d="M695.9,265.8h29.3v3.4h-25.2v15.3h23.6v3.4h-23.6v16.7h25.5v3.4h-29.6v-42.4Z"/>
  </g>
  <g>
    <path class="cls-2" d="M210.1,242.8h6c2.4,0,4.5.8,4.5,3.5s-1,2.8-2.5,3.2h0c1.8.3,3,1.6,3,3.5s-.5,4-5.1,4h-6v-14.1ZM211.5,249h4.6c2.2,0,3.2-1.1,3.2-2.4s-1.1-2.7-3.2-2.7h-4.6v5ZM211.5,255.8h4.6c2,0,3.7-.7,3.7-2.9s-1.4-2.7-3.7-2.7h-4.6v5.6Z"/>
    <path class="cls-2" d="M223.4,249.9c.1-2.4,1.8-3.4,4.1-3.4s3.8.6,3.8,3.3v5.4c0,.5.2.8.7.8s.3,0,.4,0v1c-.3,0-.5,0-.8,0-1.3,0-1.5-.7-1.5-1.8h0c-.9,1.3-1.8,2.1-3.7,2.1s-3.4-.9-3.4-3,2.8-3,5.5-3.3c1-.1,1.6-.3,1.6-1.4,0-1.7-1.2-2.1-2.7-2.1s-2.7.7-2.7,2.4h-1.2ZM230.1,251.4h0c-.2.3-.7.4-1,.5-2.1.4-4.8.4-4.8,2.4s1.1,2,2.3,2c1.9,0,3.6-1.2,3.6-3.2v-1.6Z"/>
    <path class="cls-2" d="M234.3,246.7h1.1v2.4h0c.6-1.6,2-2.6,3.9-2.5v1.2c-2.3-.1-3.8,1.5-3.8,3.7v5.4h-1.2v-10.2Z"/>
    <path class="cls-2" d="M241,242.8h1.2v5.9h0c.5-1.5,2-2.2,3.5-2.2,3.1,0,4.6,2.5,4.6,5.4s-1.5,5.4-4.6,5.4-3.1-.9-3.6-2.2h0v1.9h-1.1v-14.1ZM245.8,247.5c-2.7,0-3.6,2.2-3.6,4.4s.9,4.4,3.6,4.4,3.3-2.2,3.3-4.4-1-4.4-3.3-4.4Z"/>
    <path class="cls-2" d="M252.7,249.9c.1-2.4,1.8-3.4,4.1-3.4s3.8.6,3.8,3.3v5.4c0,.5.2.8.7.8s.3,0,.4,0v1c-.3,0-.5,0-.8,0-1.3,0-1.5-.7-1.5-1.8h0c-.9,1.3-1.8,2.1-3.7,2.1s-3.4-.9-3.4-3,2.8-3,5.5-3.3c1-.1,1.6-.3,1.6-1.4,0-1.7-1.2-2.1-2.7-2.1s-2.7.7-2.7,2.4h-1.2ZM259.4,251.4h0c-.2.3-.7.4-1,.5-2.1.4-4.8.4-4.8,2.4s1.1,2,2.3,2c1.9,0,3.6-1.2,3.6-3.2v-1.6Z"/>
    <path class="cls-2" d="M263.6,246.7h1.1v2.4h0c.6-1.6,2-2.6,3.9-2.5v1.2c-2.3-.1-3.8,1.5-3.8,3.7v5.4h-1.2v-10.2Z"/>
    <path class="cls-2" d="M270.2,249.9c.1-2.4,1.8-3.4,4.1-3.4s3.8.6,3.8,3.3v5.4c0,.5.2.8.7.8s.3,0,.4,0v1c-.3,0-.5,0-.8,0-1.3,0-1.5-.7-1.5-1.8h0c-.9,1.3-1.8,2.1-3.7,2.1s-3.4-.9-3.4-3,2.8-3,5.5-3.3c1-.1,1.6-.3,1.6-1.4,0-1.7-1.2-2.1-2.7-2.1s-2.7.7-2.7,2.4h-1.2ZM276.8,251.4h0c-.2.3-.7.4-1,.5-2.1.4-4.8.4-4.8,2.4s1.1,2,2.3,2c1.9,0,3.6-1.2,3.6-3.2v-1.6Z"/>
    <path class="cls-2" d="M291.4,242.8h1.5l5.5,14.1h-1.4l-1.7-4.4h-6.4l-1.7,4.4h-1.4l5.7-14.1ZM289.2,251.4h5.6l-2.7-7.2-2.8,7.2Z"/>
    <path class="cls-2" d="M300.7,256.9v-2.1h1.7v2.1h-1.7Z"/>
  </g>
  <g>
    <path class="cls-2" d="M737.7,308.9v-10.7h1.4v9.1h6.1v-8.1h1.4v8.1h8v1.6h-16.8Z"/>
    <path class="cls-2" d="M737.4,288.6c0-5.3,4.2-7.9,8.8-7.9s8.8,2.6,8.8,7.9-4.2,7.9-8.8,7.9-8.8-2.6-8.8-7.9ZM753.5,288.6c0-4.4-3.7-6.3-7.4-6.3s-7.4,1.9-7.4,6.3,3.7,6.3,7.4,6.3,7.4-1.9,7.4-6.3Z"/>
    <path class="cls-2" d="M737.7,277.6v-7.7c0-2.8,1.3-5.1,4.4-5.1s3.9,1.1,4.3,3.3h0c.3-2.2,1.8-2.8,3.8-2.9,1.2,0,3.5,0,4.3-.8v1.8c-.7.4-1.9.4-2.6.4-2.4.1-5,.3-4.9,3.4v6.1h7.5v1.6h-16.8ZM745.7,276v-6c0-2-1.2-3.6-3.3-3.6s-3.3,1.2-3.3,3.6v6h6.6Z"/>
  </g>
  <g>
    <path class="cls-4" d="M210,351.9c-.2,8.7,6.1,11.4,13.8,11.4s11.2-2.4,11.2-8.6-4.8-6.7-8.7-7.7l-9.4-2.3c-5-1.2-9.6-3.6-9.6-10.2s2.7-11.9,14.6-11.9,15.7,4.5,15.7,13.2h-4c-.2-6.5-5.6-9.7-11.6-9.7s-10.6,2.1-10.6,8.4,3,5.6,6.4,6.5l10.3,2.6c6,1.6,11,4.2,11,11.2s-1.2,12.1-16.2,12.1-17.4-4.5-16.9-14.8h4Z"/>
    <path class="cls-4" d="M244,323.5h18.8c7.6,0,12.6,4.5,12.6,12.1s-5,12.1-12.6,12.1h-14.8v18.2h-4v-42.4ZM248,344.3h13.9c5.6,0,9.4-2.8,9.4-8.7s-3.9-8.7-9.4-8.7h-13.9v17.3Z"/>
    <path class="cls-4" d="M286.5,323.5h4.5l16.6,42.4h-4.3l-5.2-13.2h-19.3l-5.1,13.2h-4.3l17.1-42.4ZM280,349.3h16.7l-8.2-21.7-8.5,21.7Z"/>
    <path class="cls-4" d="M340.2,336.3c-1.4-6.5-6.8-10.3-13-10.3-11.2,0-16,9.4-16,18.6s4.7,18.6,16,18.6,12.8-6.1,13.6-13.6h4c-1.1,10.4-7.7,17-17.6,17s-20-10.5-20-22.1,6.6-22.1,20-22.1,16,4.8,17,13.7h-4Z"/>
    <path class="cls-4" d="M350.5,323.5h29.3v3.4h-25.2v15.3h23.6v3.4h-23.6v16.7h25.5v3.4h-29.6v-42.4Z"/>
    <path class="cls-4" d="M400.1,323.5h33.6v3.4h-14.8v38.9h-4v-38.9h-14.8v-3.4Z"/>
    <path class="cls-4" d="M437.7,323.5h29.3v3.4h-25.2v15.3h23.6v3.4h-23.6v16.7h25.5v3.4h-29.6v-42.4Z"/>
    <path class="cls-4" d="M472.9,323.5h4v38.9h23.7v3.4h-27.8v-42.4Z"/>
    <path class="cls-4" d="M504.7,323.5h29.3v3.4h-25.2v15.3h23.6v3.4h-23.6v16.7h25.5v3.4h-29.6v-42.4Z"/>
    <path class="cls-4" d="M541.8,351.9c-.2,8.7,6.1,11.4,13.8,11.4s11.2-2.4,11.2-8.6-4.8-6.7-8.7-7.7l-9.4-2.3c-5-1.2-9.6-3.6-9.6-10.2s2.7-11.9,14.6-11.9,15.7,4.5,15.7,13.2h-4c-.2-6.5-5.6-9.7-11.6-9.7s-10.6,2.1-10.6,8.4,3,5.6,6.4,6.5l10.3,2.6c6,1.6,11,4.2,11,11.2s-1.2,12.1-16.2,12.1-17.4-4.5-16.9-14.8h4Z"/>
    <path class="cls-4" d="M607.7,336.3c-1.4-6.5-6.8-10.3-13-10.3-11.2,0-16,9.4-16,18.6s4.7,18.6,16,18.6,12.8-6.1,13.6-13.6h4c-1.1,10.4-7.7,17-17.6,17s-20-10.5-20-22.1,6.6-22.1,20-22.1,16,4.8,17,13.7h-4Z"/>
    <path class="cls-4" d="M635.7,322.6c13.3,0,19.9,10.5,19.9,22.1s-6.6,22.1-19.9,22.1-20-10.5-20-22.1,6.6-22.1,20-22.1ZM635.7,363.3c11.2,0,15.9-9.4,15.9-18.6s-4.7-18.6-15.9-18.6-16,9.4-16,18.6,4.7,18.6,16,18.6Z"/>
    <path class="cls-4" d="M660.4,323.5h18.8c7.6,0,12.6,4.5,12.6,12.1s-5,12.1-12.6,12.1h-14.8v18.2h-4v-42.4ZM664.5,344.3h13.9c5.6,0,9.4-2.8,9.4-8.7s-3.9-8.7-9.4-8.7h-13.9v17.3Z"/>
    <path class="cls-4" d="M696.4,323.5h29.3v3.4h-25.2v15.3h23.6v3.4h-23.6v16.7h25.5v3.4h-29.6v-42.4Z"/>
    <path class="cls-4" d="M732.4,351.9c-.2,8.7,6.1,11.4,13.8,11.4s11.2-2.4,11.2-8.6-4.8-6.7-8.7-7.7l-9.4-2.3c-5-1.2-9.6-3.6-9.6-10.2s2.7-11.9,14.6-11.9,15.7,4.5,15.7,13.2h-4c-.2-6.5-5.6-9.7-11.6-9.7s-10.6,2.1-10.6,8.4,3,5.6,6.4,6.5l10.3,2.6c6,1.6,11,4.2,11,11.2s-1.2,12.1-16.2,12.1-17.4-4.5-16.9-14.8h4Z"/>
  </g>
  <g>
    <path class="cls-1" d="M36,305.3c0-36.2,29.4-65.6,65.6-65.6s65.6,29.3,65.6,65.6-29.3,65.6-65.6,65.6-65.6-29.3-65.6-65.6Z"/>
    <path class="cls-5" d="M101.6,235.9c-38.3,0-69.5,31.2-69.5,69.5s31.2,69.5,69.5,69.5,69.5-31.2,69.5-69.5-31.2-69.5-69.5-69.5ZM101.6,372.2c-36.8,0-66.8-29.9-66.8-66.7s30-66.7,66.8-66.7,66.8,29.9,66.8,66.7-30,66.7-66.8,66.7Z"/>
    <path class="cls-6" d="M69.6,291.8c0,.3-.2.5-.5.5s-.5-.2-.5-.5.2-.5.5-.5.5.2.5.5Z"/>
    <path class="cls-6" d="M147.2,277.5c0,.2-.3.4-.6.4s-.6-.2-.6-.4.3-.4.6-.4.6.2.6.4Z"/>
    <path class="cls-6" d="M126.4,257.3c0,.3-.2.5-.5.5s-.5-.2-.5-.5.2-.5.5-.5.5.2.5.5Z"/>
    <path class="cls-6" d="M135,270.1c0,.3-.2.5-.5.5s-.5-.2-.5-.5.2-.5.5-.5.5.2.5.5Z"/>
    <path class="cls-6" d="M144.4,289.5c0,.4-.3.7-.6.7s-.7-.3-.7-.7.3-.7.7-.7.6.3.6.7Z"/>
    <path class="cls-6" d="M148.8,294.4c0,.4-.3.6-.6.6s-.6-.3-.6-.6.3-.6.6-.6.6.3.6.6Z"/>
    <path class="cls-6" d="M77.7,263.2c0,.3-.2.5-.5.5s-.5-.2-.5-.5.2-.5.5-.5.5.2.5.5Z"/>
    <path class="cls-6" d="M152.1,328.4c0,.2-.2.4-.4.4s-.4-.2-.4-.4.2-.4.4-.4.4.2.4.4Z"/>
    <path class="cls-6" d="M141.9,303.2c0,.3-.2.5-.5.5s-.5-.2-.5-.5.2-.5.5-.5.5.2.5.5Z"/>
    <path class="cls-6" d="M90.7,300.2c0,.3-.2.5-.5.5s-.5-.2-.5-.5.2-.5.5-.5.5.2.5.5Z"/>
    <path class="cls-6" d="M101.3,301.6c0,.3-.2.5-.5.5s-.5-.2-.5-.5.2-.5.5-.5.5.2.5.5Z"/>
    <path class="cls-6" d="M153.7,280.2c0,.3-.2.5-.5.5s-.5-.2-.5-.5.2-.5.5-.5.5.2.5.5Z"/>
    <path class="cls-6" d="M125.8,291.9c0,.2-.2.4-.4.4s-.4-.2-.4-.4.2-.4.4-.4.4.2.4.4Z"/>
    <path class="cls-6" d="M62.3,273.2c0,.1-.1.3-.3.3s-.3-.1-.3-.3.1-.3.3-.3.3.1.3.3Z"/>
    <path class="cls-6" d="M109.8,288.4c0,.1-.1.3-.3.3s-.3-.1-.3-.3.1-.3.3-.3.3.1.3.3Z"/>
    <path class="cls-6" d="M92.7,326.2c0,.2-.1.3-.3.3s-.3-.1-.3-.3.1-.3.3-.3.3.1.3.3Z"/>
    <path class="cls-6" d="M82.5,289.5c0,.2-.2.4-.4.4s-.4-.2-.4-.4.2-.4.4-.4.4.2.4.4Z"/>
    <path class="cls-6" d="M92.5,272.9c0,.3-.2.5-.5.5s-.5-.2-.5-.5.2-.5.5-.5.5.2.5.5Z"/>
    <path class="cls-6" d="M96.5,249.7c0,.2-.2.4-.4.4s-.4-.2-.4-.4.2-.4.4-.4.4.2.4.4Z"/>
    <path class="cls-6" d="M68.8,302.4c0,.1-.1.3-.3.3s-.3-.1-.3-.3.1-.3.3-.3.3.1.3.3Z"/>
    <path class="cls-6" d="M66,308.3c0,.4-.3.7-.7.7s-.7-.3-.7-.7.3-.7.7-.7.7.3.7.7Z"/>
    <path class="cls-6" d="M158.8,286.5c0,.4-.3.7-.7.7s-.7-.3-.7-.7.3-.7.7-.7.7.3.7.7Z"/>
    <path class="cls-6" d="M159.9,309.3c0,.4-.3.6-.6.6s-.7-.3-.7-.6.3-.6.7-.6.6.3.6.6Z"/>
    <path class="cls-6" d="M56.8,307.7c0,.2-.2.4-.4.4s-.4-.2-.4-.4.2-.4.4-.4.4.2.4.4Z"/>
    <path class="cls-6" d="M154.8,272.2c0,.3-.2.5-.5.5s-.5-.2-.5-.5.2-.5.5-.5.5.2.5.5Z"/>
    <path class="cls-6" d="M86.8,316c0,.2-.2.4-.4.4s-.4-.2-.4-.4.2-.4.4-.4.4.2.4.4Z"/>
    <path class="cls-6" d="M80,315.4c0,.3-.2.5-.5.5s-.5-.2-.5-.5.2-.5.5-.5.5.2.5.5Z"/>
    <path class="cls-6" d="M104.7,254.1c0,.2-.2.4-.4.4s-.4-.2-.4-.4.2-.4.4-.4.4.2.4.4Z"/>
    <path class="cls-6" d="M78.3,280.2c0,.6-.5,1.1-1.1,1.1s-1.1-.5-1.1-1.1.5-1.1,1.1-1.1,1.1.5,1.1,1.1Z"/>
    <path class="cls-6" d="M89.5,265.7c0,.6-.5,1-1,1s-1-.5-1-1,.5-1,1-1,1,.5,1,1Z"/>
    <path class="cls-6" d="M104.1,275.8c0,.5-.4.9-.9.9s-.9-.4-.9-.9.4-.9.9-.9.9.4.9.9Z"/>
    <path class="cls-6" d="M53,294.2c0,.5-.4,1-1,1s-1-.4-1-1,.4-1,1-1,1,.4,1,1Z"/>
    <path class="cls-6" d="M57.5,272c0,.4-.4.8-.8.8s-.8-.4-.8-.8.4-.8.8-.8.8.4.8.8Z"/>
    <path class="cls-6" d="M151.5,296.7c0,.3-.3.6-.6.6s-.6-.3-.6-.6.3-.6.6-.6.6.3.6.6Z"/>
    <path class="cls-6" d="M85.3,248.5c0,.2-.1.3-.3.3s-.3-.1-.3-.3.1-.3.3-.3.3.1.3.3Z"/>
    <path class="cls-6" d="M126.9,271c0,.1,0,.2-.2.2s-.2-.1-.2-.2,0-.2.2-.2.2.1.2.2Z"/>
    <path class="cls-6" d="M100.4,248.8c0,.2.2.4.4.4s.4-.2.4-.4-.2-.3-.4-.3-.4.2-.4.3Z"/>
    <path class="cls-6" d="M71.7,305.6c0,.2-.1.3-.3.3s-.3-.1-.3-.3.1-.3.3-.3.3.1.3.3Z"/>
    <path class="cls-6" d="M55.6,313c0,.2.2.4.4.4s.4-.2.4-.4-.2-.4-.4-.4-.4.2-.4.4Z"/>
    <path class="cls-6" d="M43.3,309c0,.2.2.4.4.4s.4-.2.4-.4-.2-.4-.4-.4-.4.2-.4.4Z"/>
    <path class="cls-6" d="M61.5,326.3c0,.2-.1.3-.3.3s-.3-.1-.3-.3.1-.3.3-.3.3.1.3.3Z"/>
    <path class="cls-6" d="M156.7,291.5c0,.2-.1.3-.3.3s-.3-.1-.3-.3.1-.3.3-.3.3.1.3.3Z"/>
    <path class="cls-6" d="M73,282.6c0,.2-.1.3-.3.3s-.3-.1-.3-.3.1-.3.3-.3.3.1.3.3Z"/>
    <path class="cls-6" d="M64.2,259c0,.2-.1.3-.3.3s-.3-.1-.3-.3.1-.3.3-.3.3.1.3.3Z"/>
    <path class="cls-6" d="M150.7,302.1c0,.2-.2.4-.4.4s-.4-.2-.4-.4.2-.4.4-.4.4.2.4.4Z"/>
    <path class="cls-6" d="M118.7,300.5c0,.2-.1.3-.3.3s-.3-.1-.3-.3.1-.3.3-.3.3.1.3.3Z"/>
    <path class="cls-6" d="M83.2,320.2c0,.3-.3.6-.6.6s-.6-.3-.6-.6.3-.6.6-.6.6.3.6.6Z"/>
    <path class="cls-6" d="M96.7,331.5c0,.2-.2.4-.4.4s-.4-.2-.4-.4.2-.4.4-.4.4.2.4.4Z"/>
    <path class="cls-6" d="M80.8,298.1c0,.2-.1.3-.3.3s-.3-.1-.3-.3.1-.3.3-.3.3.1.3.3Z"/>
    <path class="cls-6" d="M114.3,327.6c0,.2-.1.3-.3.3s-.3-.1-.3-.3.1-.3.3-.3.3.1.3.3Z"/>
    <path class="cls-6" d="M76.5,328.2c0,.2-.1.3-.3.3s-.3-.1-.3-.3.1-.3.3-.3.3.1.3.3Z"/>
    <path class="cls-6" d="M52.3,333.2c0,.2-.1.3-.3.3s-.3-.1-.3-.3.1-.3.3-.3.3.1.3.3Z"/>
    <path class="cls-6" d="M149.1,283.7c0,.2-.1.3-.3.3s-.3-.1-.3-.3.1-.3.3-.3.3.1.3.3Z"/>
    <path class="cls-6" d="M94.5,273.9c0,.2-.1.3-.3.3s-.3-.1-.3-.3.1-.3.3-.3.3.1.3.3Z"/>
    <path class="cls-6" d="M148,290.9c0,.2-.1.3-.3.3s-.3-.1-.3-.3.1-.3.3-.3.3.1.3.3Z"/>
    <path class="cls-3" d="M136.7,342.2l-3.7-.5c-.9-3.9-1.7-7.9-2.6-11.8l-1.6-7.5,8.7,6.5c6,4.5,12.1,9,18.2,13.4.1-.2.3-.4.4-.6-5.9-4.7-11.8-9.3-17.7-13.9l-10-7.8-1.4-6.7,22.9,3.9c.3,0,.5-.1.6-.4,0-.3-.1-.5-.4-.6l-6.1-1.1c0,0,0-.2,0-.2l-30.4-67.9s0,0,0,0c-.1-.3-.4-.5-.8-.5l-.2-2.3c0-.3-.2-.5-.5-.5-.3,0-.5.2-.5.5v5.9c0,0-.2.2-.3.3l-31.3,52.8-6.5-1.2s0,0,0,0c-.6-.1-1.1.3-1.2.9-.1.6.3,1.1.9,1.2l29.6,5v.7c-.1,0-.8,4.4-.8,4.4l-41.4,17.2-3.4-.5s0,0,0,0c-.6,0-1.2.4-1.3,1,0,.6.4,1.2,1,1.3l41.6,5.2v.4c-1.3,8.9-3.4,21.9-4.7,31.5.4,0,.7,0,1.1.1,1.6-9.5,3.4-22.6,4.8-31.5v-.4c0,0,10.5,1.3,10.5,1.3h.9c0,.1-1.6,30.5-1.6,30.5,3.6-.4,7.1-1.1,10.4-2.1l-2.7-27.5,11,1.4c.8,4.8,2.6,15.5,3.7,21.3.3-.2.7-.3,1-.5-.9-5.8-2.6-16-3.4-20.6l2.6.3c.8,4,2.5,13.3,3.6,18.7.4-.3.8-.5,1.2-.8-1-5.4-2.6-14-3.4-17.8l3.2.4c5.6.7,11.2,1.5,16.8,2.2.3-.3.5-.7.8-1.1-5.8-.7-11.6-1.5-17.4-2.3ZM81.2,303.4l29.4-48.3-7.6,52.4-21.7-4ZM103.8,309.3l6.5,1.1v.4s-7.1,3-7.1,3l.5-3.7v-.7ZM98.6,336.9l-35.6-5,38.6-15.3-3,20.3ZM111,338.6h-.8c0-.1-10.4-1.6-10.4-1.6l3-20.9,7.5-3,.2,9.3c-3.2.3-5.4,1-5.4,1.8s.8,1,2.2,1.3c.2,2.3,1.8,4.2,4,4.9l-.4,8.1ZM111.5,309l-7.4-1.4,7.6-52.4.9,53.4c-.4.1-.8.3-1.2.4ZM124.2,312.8l1.5.3,1.2,5.8-2-1.5M122.7,304.3l-6.1-35.3,7.1,34.5,1.7,8.2-1.5-.3-1.2-7.1ZM123.6,316.2l-5.8-4.5,5.2.9.6,3.7ZM142.6,314.8l-16-3-1.9-8.6-10.7-49.6-.3-1.7,28.9,62.9ZM121.5,304.5l1.1,6.7-5.7-1.1v-.8s0,0,0,0l-3.5-52,8.1,47.3ZM116.9,339.4l-.9-9c2.1-.8,3.5-2.6,3.7-4.8,1.3-.4,2.2-.8,2.2-1.3s-1.7-1.4-4.1-1.7l-.5-8.4s0,0,0,0v-.5s6.8,5.1,6.8,5.1l2.2,12.6c.6,3.2,1.1,6.4,1.7,9.6l-11-1.5ZM129.1,341.1c-.6-3.3-1.2-6.7-1.7-10l-2-11.3,2,1.5,1.8,8.8c.8,3.8,1.6,7.6,2.3,11.4l-2.5-.4Z"/>
  </g>
</svg>