<?xml version="1.0" encoding="UTF-8" standalone="no"?>
<svg
   id="Layer_1"
   data-name="Layer 1"
   viewBox="0 0 145 145"
   version="1.1"
   sodipodi:docname="mast-logo-square.svg"
   width="145"
   height="145"
   inkscape:version="1.2.2 (b0a8486, 2022-12-01)"
   xmlns:inkscape="http://www.inkscape.org/namespaces/inkscape"
   xmlns:sodipodi="http://sodipodi.sourceforge.net/DTD/sodipodi-0.dtd"
   xmlns="http://www.w3.org/2000/svg"
   xmlns:svg="http://www.w3.org/2000/svg"
   xmlns:rdf="http://www.w3.org/1999/02/22-rdf-syntax-ns#"
   xmlns:cc="http://creativecommons.org/ns#"
   xmlns:dc="http://purl.org/dc/elements/1.1/">
  <sodipodi:namedview
     id="namedview226"
     pagecolor="#ffffff"
     bordercolor="#000000"
     borderopacity="0.25"
     inkscape:showpageshadow="2"
     inkscape:pageopacity="0.0"
     inkscape:pagecheckerboard="0"
     inkscape:deskcolor="#d1d1d1"
     showgrid="false"
     inkscape:zoom="1.0907007"
     inkscape:cx="235.62834"
     inkscape:cy="246.17203"
     inkscape:window-width="2043"
     inkscape:window-height="1111"
     inkscape:window-x="211"
     inkscape:window-y="66"
     inkscape:window-maximized="0"
     inkscape:current-layer="Layer_1" />
  <defs
     id="defs15">
    <style
       id="style2">.cls-1,.cls-2,.cls-3{fill:#fff;}.cls-1,.cls-2{stroke:#fff;stroke-linecap:round;stroke-linejoin:round;}.cls-1{stroke-width:2.07px;}.cls-2{stroke-width:1.04px;}.cls-4{fill:url(#linear-gradient);}.cls-5{fill:#89b8e3;}</style>
    <linearGradient
       id="linear-gradient"
       x1="689.94"
       y1="368.82001"
       x2="689.94"
       y2="237.72"
       gradientTransform="rotate(180,381.52895,187.75842)"
       gradientUnits="userSpaceOnUse">
      <stop
         offset="0"
         stop-color="#055694"
         id="stop4" />
      <stop
         offset="0.24"
         stop-color="#2070ad"
         id="stop6" />
      <stop
         offset="0.5"
         stop-color="#3483c1"
         id="stop8" />
      <stop
         offset="0.75"
         stop-color="#408fcc"
         id="stop10" />
      <stop
         offset="1"
         stop-color="#4493d0"
         id="stop12" />
    </linearGradient>
  </defs>
  <title
     id="title17">MAST Logo Horizontal</title>
  <path
     class="cls-4"
     d="m 7.577904,72.246842 a 65.56,65.56 0 1 1 65.56,65.549998 65.56,65.56 0 0 1 -65.56,-65.549998 z"
     id="path109"
     style="fill:url(#linear-gradient)" />
  <path
     class="cls-5"
     d="M 73.157904,2.8368418 A 69.49,69.49 0 1 0 142.6879,72.326842 69.59,69.59 0 0 0 73.157904,2.8368418 Z m 0,136.2299982 A 66.75,66.75 0 1 1 139.9379,72.326842 66.84,66.84 0 0 1 73.157904,139.06684 Z"
     id="path111" />
  <path
     class="cls-3"
     d="m 41.207904,58.736842 a 0.47,0.47 0 0 1 -0.93,0 0.47,0.47 0 1 1 0.93,0 z"
     id="path113" />
  <path
     class="cls-3"
     d="m 118.7779,44.436842 a 0.58,0.58 0 0 1 -1.13,0 0.58,0.58 0 0 1 1.13,0 z"
     id="path115" />
  <path
     class="cls-3"
     d="m 98.007904,24.206842 a 0.52,0.52 0 1 1 -0.52,-0.52 0.52,0.52 0 0 1 0.52,0.52 z"
     id="path117" />
  <path
     class="cls-3"
     d="m 106.5779,37.036842 a 0.51,0.51 0 0 1 -0.51,0.52 0.52,0.52 0 0 1 -0.53,-0.52 0.53,0.53 0 0 1 0.53,-0.52 0.52,0.52 0 0 1 0.51,0.52 z"
     id="path119" />
  <path
     class="cls-3"
     d="m 115.9779,56.406842 a 0.66,0.66 0 0 1 -0.65,0.65 0.65,0.65 0 0 1 0,-1.3 0.66,0.66 0 0 1 0.65,0.65 z"
     id="path121" />
  <path
     class="cls-3"
     d="m 120.4079,61.356842 a 0.63,0.63 0 1 1 -1.26,0 0.64,0.64 0 0 1 0.63,-0.64 0.63,0.63 0 0 1 0.63,0.64 z"
     id="path123" />
  <path
     class="cls-3"
     d="m 49.257904,30.156842 a 0.52,0.52 0 1 1 -0.52,-0.52 0.52,0.52 0 0 1 0.52,0.52 z"
     id="path125" />
  <path
     class="cls-3"
     d="m 123.6879,95.296842 a 0.39,0.39 0 1 1 -0.39,-0.39 0.38,0.38 0 0 1 0.39,0.39 z"
     id="path127" />
  <path
     class="cls-3"
     d="m 113.4679,70.166842 a 0.52,0.52 0 0 1 -1,0 0.52,0.52 0 1 1 1,0 z"
     id="path129" />
  <path
     class="cls-3"
     d="m 62.237904,67.076842 a 0.52,0.52 0 1 1 -0.52,-0.52 0.52,0.52 0 0 1 0.52,0.52 z"
     id="path131" />
  <path
     class="cls-3"
     d="m 72.867904,68.506842 a 0.52,0.52 0 0 1 -0.52,0.52 0.52,0.52 0 0 1 -0.52,-0.52 0.53,0.53 0 0 1 0.52,-0.52 0.52,0.52 0 0 1 0.52,0.52 z"
     id="path133" />
  <path
     class="cls-3"
     d="m 125.2479,47.116842 a 0.52,0.52 0 0 1 -0.52,0.52 0.52,0.52 0 0 1 -0.52,-0.52 0.52,0.52 0 0 1 0.52,-0.52 0.53,0.53 0 0 1 0.52,0.52 z"
     id="path135" />
  <path
     class="cls-3"
     d="m 97.387904,58.836842 a 0.39,0.39 0 0 1 -0.38,0.4 0.4,0.4 0 0 1 -0.4,-0.4 0.39,0.39 0 0 1 0.4,-0.38 0.38,0.38 0 0 1 0.38,0.38 z"
     id="path137" />
  <path
     class="cls-3"
     d="m 33.907904,40.066842 a 0.27,0.27 0 0 1 -0.26,0.27 0.27,0.27 0 0 1 0,-0.53 0.26,0.26 0 0 1 0.26,0.26 z"
     id="path139" />
  <path
     class="cls-3"
     d="m 81.357904,55.306842 a 0.27,0.27 0 0 1 -0.26,0.27 0.26,0.26 0 0 1 -0.26,-0.27 0.25,0.25 0 0 1 0.26,-0.25 0.26,0.26 0 0 1 0.26,0.25 z"
     id="path141" />
  <path
     class="cls-3"
     d="m 64.267904,93.146842 a 0.31,0.31 0 0 1 -0.33,0.27 0.3,0.3 0 0 1 -0.32,-0.27 0.33,0.33 0 0 1 0.65,0 z"
     id="path143" />
  <path
     class="cls-3"
     d="m 54.037904,56.466842 a 0.39,0.39 0 0 1 -0.39,0.39 0.4,0.4 0 0 1 -0.39,-0.39 0.39,0.39 0 0 1 0.39,-0.39 0.38,0.38 0 0 1 0.39,0.39 z"
     id="path145" />
  <path
     class="cls-3"
     d="m 64.067904,39.776842 a 0.52,0.52 0 1 1 -0.52,-0.52 0.52,0.52 0 0 1 0.52,0.52 z"
     id="path147" />
  <path
     class="cls-3"
     d="m 68.087904,16.656842 a 0.39,0.39 0 0 1 -0.39,0.4 0.4,0.4 0 0 1 0,-0.79 0.39,0.39 0 0 1 0.39,0.39 z"
     id="path149" />
  <path
     class="cls-3"
     d="m 40.337904,69.316842 a 0.26,0.26 0 1 1 -0.26,-0.27 0.26,0.26 0 0 1 0.26,0.27 z"
     id="path151" />
  <path
     class="cls-3"
     d="m 37.577904,75.226842 a 0.68,0.68 0 1 1 -0.68,-0.69 0.68,0.68 0 0 1 0.68,0.69 z"
     id="path153" />
  <path
     class="cls-3"
     d="m 130.3379,53.456842 a 0.72,0.72 0 1 1 -0.72,-0.65 0.69,0.69 0 0 1 0.72,0.65 z"
     id="path155" />
  <path
     class="cls-3"
     d="m 131.4379,76.186842 a 0.65,0.65 0 1 1 -0.65,-0.65 0.65,0.65 0 0 1 0.65,0.65 z"
     id="path157" />
  <path
     class="cls-3"
     d="m 28.427904,74.596842 a 0.45,0.45 0 0 1 -0.89,0 0.45,0.45 0 0 1 0.89,0 z"
     id="path159" />
  <path
     class="cls-3"
     d="m 126.3279,39.096842 a 0.53,0.53 0 1 1 -0.53,-0.52 0.52,0.52 0 0 1 0.53,0.52 z"
     id="path161" />
  <path
     class="cls-3"
     d="m 58.387904,82.916842 a 0.4,0.4 0 1 1 -0.4,-0.4 0.4,0.4 0 0 1 0.4,0.4 z"
     id="path163" />
  <path
     class="cls-3"
     d="m 51.577904,82.336842 a 0.52,0.52 0 0 1 -0.52,0.52 0.52,0.52 0 0 1 0,-1 0.52,0.52 0 0 1 0.52,0.48 z"
     id="path165" />
  <path
     class="cls-3"
     d="m 76.277904,20.976842 a 0.44,0.44 0 0 1 -0.43,0.43 0.43,0.43 0 0 1 -0.43,-0.43 0.43,0.43 0 0 1 0.43,-0.43 0.43,0.43 0 0 1 0.43,0.43 z"
     id="path167" />
  <path
     class="cls-3"
     d="m 49.857904,47.126842 a 1.07,1.07 0 1 1 -1.06,-1.06 1.07,1.07 0 0 1 1.06,1.06 z"
     id="path169" />
  <path
     class="cls-3"
     d="m 61.047904,32.666842 a 1,1 0 1 1 -1,-1.05 1,1 0 0 1 1,1.05 z"
     id="path171" />
  <path
     class="cls-3"
     d="m 75.677904,42.666842 a 0.9,0.9 0 1 1 -0.9,-0.89 0.9,0.9 0 0 1 0.9,0.89 z"
     id="path173" />
  <path
     class="cls-3"
     d="m 24.577904,61.086842 a 1,1 0 1 1 -1,-1 1,1 0 0 1 1,1 z"
     id="path175" />
  <path
     class="cls-3"
     d="m 29.067904,38.916842 a 0.81,0.81 0 1 1 -0.81,-0.81 0.81,0.81 0 0 1 0.81,0.81 z"
     id="path177" />
  <path
     class="cls-3"
     d="m 123.0379,63.596842 a 0.57,0.57 0 1 1 -0.57,-0.58 0.57,0.57 0 0 1 0.57,0.58 z"
     id="path179" />
  <path
     class="cls-3"
     d="m 56.847904,15.406842 a 0.29,0.29 0 1 1 -0.28,-0.29 0.29,0.29 0 0 1 0.28,0.29 z"
     id="path181" />
  <path
     class="cls-3"
     d="m 98.497904,37.916842 a 0.22,0.22 0 1 1 -0.22,-0.23 0.22,0.22 0 0 1 0.22,0.23 z"
     id="path183" />
  <path
     class="cls-3"
     d="m 71.937904,15.726842 a 0.38,0.38 0 0 0 0.75,0 0.38,0.38 0 0 0 -0.75,0 z"
     id="path185" />
  <path
     class="cls-3"
     d="m 43.237904,72.566842 a 0.29,0.29 0 1 1 -0.29,-0.29 0.29,0.29 0 0 1 0.29,0.29 z"
     id="path187" />
  <path
     class="cls-3"
     d="m 27.167904,79.916842 a 0.43,0.43 0 0 0 0.43,0.43 0.43,0.43 0 0 0 0,-0.86 0.43,0.43 0 0 0 -0.43,0.43 z"
     id="path189" />
  <path
     class="cls-3"
     d="m 14.867904,75.916842 a 0.43,0.43 0 1 0 0.43,-0.43 0.43,0.43 0 0 0 -0.43,0.43 z"
     id="path191" />
  <path
     class="cls-3"
     d="m 33.047904,93.206842 a 0.29,0.29 0 0 1 -0.29,0.29 0.29,0.29 0 0 1 0,-0.57 0.29,0.29 0 0 1 0.29,0.28 z"
     id="path193" />
  <path
     class="cls-3"
     d="m 128.2479,58.446842 a 0.28,0.28 0 0 1 -0.28,0.29 0.29,0.29 0 0 1 0,-0.58 0.28,0.28 0 0 1 0.28,0.29 z"
     id="path195" />
  <path
     class="cls-3"
     d="m 44.577904,49.536842 a 0.29,0.29 0 1 1 -0.28,-0.29 0.29,0.29 0 0 1 0.28,0.29 z"
     id="path197" />
  <path
     class="cls-3"
     d="m 35.747904,25.916842 a 0.29,0.29 0 1 1 -0.28,-0.29 0.29,0.29 0 0 1 0.28,0.29 z"
     id="path199" />
  <path
     class="cls-3"
     d="m 122.2479,69.036842 a 0.43,0.43 0 1 1 -0.86,0 0.43,0.43 0 1 1 0.86,0 z"
     id="path201" />
  <path
     class="cls-3"
     d="m 90.327904,67.436842 a 0.29,0.29 0 1 1 -0.58,0 0.29,0.29 0 0 1 0.58,0 z"
     id="path203" />
  <path
     class="cls-3"
     d="m 54.737904,87.156842 a 0.57,0.57 0 0 1 -0.57,0.57 0.58,0.58 0 0 1 -0.57,-0.57 0.57,0.57 0 0 1 0.57,-0.57 0.56,0.56 0 0 1 0.57,0.57 z"
     id="path205" />
  <path
     class="cls-3"
     d="m 68.257904,98.376842 a 0.43,0.43 0 0 1 -0.43,0.43 0.43,0.43 0 0 1 -0.43,-0.43 0.43,0.43 0 0 1 0.43,-0.43 0.44,0.44 0 0 1 0.43,0.43 z"
     id="path207" />
  <path
     class="cls-3"
     d="m 52.407904,65.056842 a 0.29,0.29 0 0 1 -0.29,0.28 0.29,0.29 0 0 1 0,-0.57 0.29,0.29 0 0 1 0.29,0.29 z"
     id="path209" />
  <path
     class="cls-3"
     d="m 85.857904,94.556842 a 0.29,0.29 0 0 1 -0.29,0.29 0.28,0.28 0 0 1 -0.28,-0.29 0.27,0.27 0 0 1 0.28,-0.28 0.28,0.28 0 0 1 0.29,0.28 z"
     id="path211" />
  <path
     class="cls-3"
     d="m 48.057904,95.076842 a 0.29,0.29 0 1 1 -0.29,-0.29 0.29,0.29 0 0 1 0.29,0.29 z"
     id="path213" />
  <path
     class="cls-3"
     d="m 23.917904,100.08684 a 0.29,0.29 0 1 1 -0.29,-0.289998 0.29,0.29 0 0 1 0.29,0.289998 z"
     id="path215" />
  <path
     class="cls-3"
     d="m 120.6479,50.586842 a 0.28,0.28 0 0 1 -0.28,0.29 0.29,0.29 0 1 1 0,-0.57 0.28,0.28 0 0 1 0.28,0.28 z"
     id="path217" />
  <path
     class="cls-3"
     d="m 66.127904,40.786842 a 0.29,0.29 0 0 1 -0.29,0.29 0.28,0.28 0 0 1 -0.28,-0.29 0.27,0.27 0 0 1 0.28,-0.28 0.28,0.28 0 0 1 0.29,0.28 z"
     id="path219" />
  <path
     class="cls-3"
     d="m 119.5779,57.786842 a 0.29,0.29 0 0 1 -0.58,0 0.29,0.29 0 0 1 0.58,0 z"
     id="path221" />
  <path
     d="m 108.2779,109.10684 -3.65,-0.51 c -0.86,-3.95 -1.73,-7.89 -2.57,-11.839998 l -1.61,-7.46 8.68,6.46 q 9,6.749998 18.16,13.409998 l 0.4,-0.6 q -8.82,-7 -17.73,-13.899998 l -9.999996,-7.81 -1.45,-6.68 22.899996,3.89 a 0.49,0.49 0 0 0 0.57,-0.4 0.49,0.49 0 0 0 -0.4,-0.57 l -6.08,-1.13 a 0.65,0.65 0 0 0 0,-0.24 l -30.469996,-67.81 v 0 a 0.94,0.94 0 0 0 -0.77,-0.52 l -0.15,-2.28 a 0.50062461,0.50062461 0 0 0 -1,0.05 l 0.1,5.88 a 1,1 0 0 0 -0.4,0.35 l -31.23,52.72 -6.52,-1.2 v 0 a 1.08,1.08 0 0 0 -0.36,2.12 l 29.57,5 -0.11,0.73 -0.65,4.45 -41.4,17.2 -3.44,-0.5 v 0 a 1.1336776,1.1336776 0 1 0 -0.28,2.249998 l 41.6,5.2 -0.07,0.42 c -1.24,8.9 -3.38,21.91 -4.63,31.5 l 1.06,0.13 c 1.57,-9.55 3.42,-22.58 4.76,-31.46 l 0.07,-0.44 10.39,1.3 0.92,0.11 -1.6,30.38 a 65.31,65.31 0 0 0 10.43,-2.1 l -2.74,-27.46 11.05,1.39 c 0.819996,4.84 2.569996,15.47 3.669996,21.31 l 1,-0.51 c -0.89,-5.84 -2.57,-16 -3.38,-20.64 l 2.55,0.33 c 0.83,4 2.5,13.27 3.61,18.71 0.42,-0.25 0.84,-0.51 1.25,-0.78 -1,-5.37 -2.6,-14 -3.42,-17.75 l 3.24,0.41 c 5.6,0.73 11.19,1.45 16.77,2.23 l 0.81,-1.06 q -8.75,-1.09 -17.45,-2.28 z m -55.509996,-38.769998 29.37,-48.32 -7.64,52.35 z m 22.66,5.92 6.48,1.1 v 0.38 l -7.13,3 0.54,-3.74 z m -5.23,27.539998 -35.64,-4.999998 38.6,-15.25 z m 12.38,1.73 -0.81,-0.11 -10.38,-1.5 3,-20.929998 7.53,-3 0.25,9.3 c -3.17,0.28 -5.44,1 -5.44,1.84 0,0.51 0.84,1 2.18,1.32 a 5.83,5.83 0 0 0 4,4.93 z m 0.48,-29.569998 -7.36,-1.37 7.64,-52.45 0.91,53.39 a 7.11,7.11 0 0 0 -1.22,0.39 z m 12.76,3.76 1.54,0.26 1.2,5.8 -2,-1.52 m -2.26,-13.08 -6.1,-35.34 7.14,34.55 1.69,8.16 -1.5,-0.28 z m 0.84,12 -5.83,-4.54 5.2,0.88 z m 19.059996,-1.42 -15.999996,-3 -1.86,-8.57 -10.76,-49.6 -0.3,-1.74 z m -21.089996,-10.35 1.15,6.65 -5.68,-1.08 v -0.76 a 0.15,0.15 0 0 0 0,-0.06 l -3.49,-52 z m -4.68,34.999998 -0.89,-8.999998 a 5.8,5.8 0 0 0 3.71,-4.81 c 1.34,-0.35 2.19,-0.81 2.19,-1.33 0,-0.72 -1.68,-1.35 -4.14,-1.69 l -0.52,-8.41 v 0 -0.49 l 6.82,5.08 2.16,12.55 q 0.85,4.809998 1.66,9.639998 z m 12.239996,1.7 c -0.59,-3.34 -1.179996,-6.68 -1.729996,-9.999998 l -2,-11.29 2,1.52 1.809996,8.77 c 0.8,3.789998 1.57,7.579998 2.35,11.379998 z"
     id="path223" />
  <metadata
     id="metadata455">
    <rdf:RDF>
      <cc:Work
         rdf:about="">
        <dc:title>MAST Logo Horizontal</dc:title>
      </cc:Work>
    </rdf:RDF>
  </metadata>
</svg>
