<?xml version="1.0" encoding="UTF-8" standalone="no"?>
<svg
   id="Layer_1"
   data-name="Layer 1"
   version="1.1"
   viewBox="0 0 792 145"
   sodipodi:docname="mast-logo-blue-horizontal.svg"
   width="792"
   height="145"
   inkscape:version="1.2.2 (b0a8486, 2022-12-01)"
   xmlns:inkscape="http://www.inkscape.org/namespaces/inkscape"
   xmlns:sodipodi="http://sodipodi.sourceforge.net/DTD/sodipodi-0.dtd"
   xmlns="http://www.w3.org/2000/svg"
   xmlns:svg="http://www.w3.org/2000/svg">
  <sodipodi:namedview
     id="namedview934"
     pagecolor="#ffffff"
     bordercolor="#000000"
     borderopacity="0.25"
     inkscape:showpageshadow="2"
     inkscape:pageopacity="0.0"
     inkscape:pagecheckerboard="0"
     inkscape:deskcolor="#d1d1d1"
     showgrid="false"
     inkscape:zoom="0.38562092"
     inkscape:cx="605.51695"
     inkscape:cy="306"
     inkscape:window-width="1309"
     inkscape:window-height="456"
     inkscape:window-x="8"
     inkscape:window-y="177"
     inkscape:window-maximized="0"
     inkscape:current-layer="Layer_1" />
  <defs
     id="defs713">
    <style
       id="style700">
      .cls-1 {
        fill: url(#linear-gradient);
      }

      .cls-1, .cls-2, .cls-3, .cls-4, .cls-5, .cls-6 {
        stroke-width: 0px;
      }

      .cls-2, .cls-7, .cls-8 {
        fill: #1a8cb5;
      }

      .cls-3 {
        fill: #000;
      }

      .cls-4 {
        fill: #1b62ae;
      }

      .cls-7 {
        stroke-width: 1px;
      }

      .cls-7, .cls-8 {
        stroke: #1a8cb5;
        stroke-linecap: round;
        stroke-linejoin: round;
      }

      .cls-5 {
        fill: #89b8e3;
      }

      .cls-8 {
        stroke-width: 2.1px;
      }

      .cls-6 {
        fill: #fff;
      }
    </style>
    <linearGradient
       id="linear-gradient"
       x1="689.90002"
       y1="368.79999"
       x2="689.90002"
       y2="237.7"
       gradientTransform="rotate(180,395.75,304.3)"
       gradientUnits="userSpaceOnUse">
      <stop
         offset="0"
         stop-color="#055694"
         id="stop702" />
      <stop
         offset=".2"
         stop-color="#1f6fad"
         id="stop704" />
      <stop
         offset=".5"
         stop-color="#3383c0"
         id="stop706" />
      <stop
         offset=".7"
         stop-color="#3f8fcc"
         id="stop708" />
      <stop
         offset="1"
         stop-color="#4493d0"
         id="stop710" />
    </linearGradient>
  </defs>
  <g
     id="g721"
     transform="translate(-2.5932203,-233.38983)">
    <line
       class="cls-8"
       x1="182.60001"
       y1="240.5"
       x2="182.60001"
       y2="367.79999"
       id="line715" />
    <line
       class="cls-7"
       x1="187.89999"
       y1="240.5"
       x2="187.89999"
       y2="367.79999"
       id="line717" />
    <line
       class="cls-8"
       x1="193.10001"
       y1="240.5"
       x2="193.10001"
       y2="367.79999"
       id="line719" />
  </g>
  <g
     id="g753"
     transform="translate(-2.5932203,-233.38983)">
    <path
       class="cls-4"
       d="m 208.5,265.8 h 5.9 l 14.7,37.2 14.6,-37.2 h 5.9 v 42.4 h -4 v -36.6 h -0.1 L 231,308.2 h -3.8 l -14.5,-36.6 h -0.1 v 36.6 h -4 v -42.4 z"
       id="path723" />
    <path
       class="cls-4"
       d="m 257.8,265.8 h 4 v 42.4 h -4 z"
       id="path725" />
    <path
       class="cls-4"
       d="m 270,265.8 h 4 v 22.8 l 24.6,-22.8 h 5.5 l -18.9,17.5 19.8,24.9 h -5.2 l -17.6,-22.1 -8.1,7.5 v 14.5 h -4 v -42.4 z"
       id="path727" />
    <path
       class="cls-4"
       d="m 307.5,265.8 h 4 V 292 c 0,9.9 4.6,13.6 12.4,13.6 7.8,0 12.5,-3.7 12.5,-13.6 v -26.2 h 4 v 27.1 c 0,8.7 -4.7,16.1 -16.5,16.1 -11.8,0 -16.4,-7.4 -16.4,-16.1 z"
       id="path729" />
    <path
       class="cls-4"
       d="m 347.1,265.8 h 4 v 38.9 h 23.7 v 3.4 H 347 v -42.4 z"
       id="path731" />
    <path
       class="cls-4"
       d="m 379.9,294.2 c -0.2,8.7 6.1,11.4 13.8,11.4 7.7,0 11.2,-2.4 11.2,-8.6 0,-6.2 -4.8,-6.7 -8.7,-7.7 l -9.4,-2.3 c -5,-1.2 -9.6,-3.6 -9.6,-10.2 0,-6.6 2.7,-11.9 14.6,-11.9 11.9,0 15.7,4.5 15.7,13.2 h -4 c -0.2,-6.5 -5.6,-9.7 -11.6,-9.7 -6,0 -10.6,2.1 -10.6,8.4 0,6.3 3,5.6 6.4,6.5 l 10.3,2.6 c 6,1.6 11,4.2 11,11.2 0,7 -1.2,12.1 -16.2,12.1 -15,0 -17.4,-4.5 -16.9,-14.8 h 4 z"
       id="path733" />
    <path
       class="cls-4"
       d="m 415.1,265.8 h 4 v 22.8 l 24.6,-22.8 h 5.5 l -18.9,17.5 19.8,24.9 h -5.2 l -17.6,-22.1 -8.1,7.5 v 14.5 h -4 v -42.4 z"
       id="path735" />
    <path
       class="cls-4"
       d="m 452.9,265.8 h 4 v 42.4 h -4 z"
       id="path737" />
    <path
       class="cls-4"
       d="m 499.5,265.8 h 4.5 l 16.6,42.4 h -4.3 L 511.1,295 h -19.3 l -5.1,13.2 h -4.3 z m -6.4,25.7 h 16.7 l -8.2,-21.7 z"
       id="path739" />
    <path
       class="cls-4"
       d="m 525.1,265.8 h 19.4 c 7,0 12.9,3.4 12.9,11 0,7.6 -2.8,9.7 -8.3,10.8 v 0 c 5.5,0.8 7.1,4.6 7.4,9.7 0.2,2.9 0.2,8.7 2,10.9 H 554 c -1,-1.7 -1,-4.8 -1.1,-6.6 -0.4,-5.9 -0.8,-12.5 -8.5,-12.2 h -15.3 v 18.8 h -4 z m 4,20.1 h 15.1 c 4.9,0 9.1,-3.1 9.1,-8.3 0,-5.2 -3.1,-8.4 -9.1,-8.4 h -15.1 z"
       id="path741" />
    <path
       class="cls-4"
       d="m 594.7,278.6 c -1.4,-6.5 -6.8,-10.3 -13,-10.3 -11.2,0 -16,9.4 -16,18.6 0,9.2 4.7,18.6 16,18.6 11.3,0 12.8,-6.1 13.6,-13.6 h 4 c -1.1,10.4 -7.7,17 -17.6,17 -9.9,0 -20,-10.5 -20,-22.1 0,-11.6 6.6,-22.1 20,-22.1 13.4,0 16,4.8 17,13.7 h -4 z"
       id="path743" />
    <path
       class="cls-4"
       d="m 604.6,265.8 h 4 v 18.4 h 25.2 v -18.4 h 4 v 42.4 h -4 v -20.5 h -25.2 v 20.5 h -4 z"
       id="path745" />
    <path
       class="cls-4"
       d="m 646.7,265.8 h 4 v 42.4 h -4 z"
       id="path747" />
    <path
       class="cls-4"
       d="m 655.4,265.8 h 4.3 l 13.8,37.9 h 0.1 l 13.7,-37.9 h 4.3 l -15.7,42.4 h -4.7 l -15.7,-42.4 z"
       id="path749" />
    <path
       class="cls-4"
       d="m 695.9,265.8 h 29.3 v 3.4 H 700 v 15.3 h 23.6 v 3.4 H 700 v 16.7 h 25.5 v 3.4 h -29.6 v -42.4 z"
       id="path751" />
  </g>
  <g
     id="g773"
     transform="translate(-2.5932203,-233.38983)">
    <path
       class="cls-2"
       d="m 210.1,242.8 h 6 c 2.4,0 4.5,0.8 4.5,3.5 0,2.7 -1,2.8 -2.5,3.2 v 0 c 1.8,0.3 3,1.6 3,3.5 0,1.9 -0.5,4 -5.1,4 h -6 v -14.1 z m 1.4,6.2 h 4.6 c 2.2,0 3.2,-1.1 3.2,-2.4 0,-1.3 -1.1,-2.7 -3.2,-2.7 h -4.6 v 5 z m 0,6.8 h 4.6 c 2,0 3.7,-0.7 3.7,-2.9 0,-2.2 -1.4,-2.7 -3.7,-2.7 h -4.6 z"
       id="path755" />
    <path
       class="cls-2"
       d="m 223.4,249.9 c 0.1,-2.4 1.8,-3.4 4.1,-3.4 2.3,0 3.8,0.6 3.8,3.3 v 5.4 c 0,0.5 0.2,0.8 0.7,0.8 0.5,0 0.3,0 0.4,0 v 1 c -0.3,0 -0.5,0 -0.8,0 -1.3,0 -1.5,-0.7 -1.5,-1.8 v 0 c -0.9,1.3 -1.8,2.1 -3.7,2.1 -1.9,0 -3.4,-0.9 -3.4,-3 0,-2.1 2.8,-3 5.5,-3.3 1,-0.1 1.6,-0.3 1.6,-1.4 0,-1.7 -1.2,-2.1 -2.7,-2.1 -1.5,0 -2.7,0.7 -2.7,2.4 h -1.2 z m 6.7,1.5 v 0 c -0.2,0.3 -0.7,0.4 -1,0.5 -2.1,0.4 -4.8,0.4 -4.8,2.4 0,2 1.1,2 2.3,2 1.9,0 3.6,-1.2 3.6,-3.2 v -1.6 z"
       id="path757" />
    <path
       class="cls-2"
       d="m 234.3,246.7 h 1.1 v 2.4 0 c 0.6,-1.6 2,-2.6 3.9,-2.5 v 1.2 c -2.3,-0.1 -3.8,1.5 -3.8,3.7 v 5.4 h -1.2 z"
       id="path759" />
    <path
       class="cls-2"
       d="m 241,242.8 h 1.2 v 5.9 0 c 0.5,-1.5 2,-2.2 3.5,-2.2 3.1,0 4.6,2.5 4.6,5.4 0,2.9 -1.5,5.4 -4.6,5.4 -3.1,0 -3.1,-0.9 -3.6,-2.2 v 0 1.9 H 241 v -14.1 z m 4.8,4.7 c -2.7,0 -3.6,2.2 -3.6,4.4 0,2.2 0.9,4.4 3.6,4.4 2.7,0 3.3,-2.2 3.3,-4.4 0,-2.2 -1,-4.4 -3.3,-4.4 z"
       id="path761" />
    <path
       class="cls-2"
       d="m 252.7,249.9 c 0.1,-2.4 1.8,-3.4 4.1,-3.4 2.3,0 3.8,0.6 3.8,3.3 v 5.4 c 0,0.5 0.2,0.8 0.7,0.8 0.5,0 0.3,0 0.4,0 v 1 c -0.3,0 -0.5,0 -0.8,0 -1.3,0 -1.5,-0.7 -1.5,-1.8 v 0 c -0.9,1.3 -1.8,2.1 -3.7,2.1 -1.9,0 -3.4,-0.9 -3.4,-3 0,-2.1 2.8,-3 5.5,-3.3 1,-0.1 1.6,-0.3 1.6,-1.4 0,-1.7 -1.2,-2.1 -2.7,-2.1 -1.5,0 -2.7,0.7 -2.7,2.4 h -1.2 z m 6.7,1.5 v 0 c -0.2,0.3 -0.7,0.4 -1,0.5 -2.1,0.4 -4.8,0.4 -4.8,2.4 0,2 1.1,2 2.3,2 1.9,0 3.6,-1.2 3.6,-3.2 v -1.6 z"
       id="path763" />
    <path
       class="cls-2"
       d="m 263.6,246.7 h 1.1 v 2.4 0 c 0.6,-1.6 2,-2.6 3.9,-2.5 v 1.2 c -2.3,-0.1 -3.8,1.5 -3.8,3.7 v 5.4 h -1.2 z"
       id="path765" />
    <path
       class="cls-2"
       d="m 270.2,249.9 c 0.1,-2.4 1.8,-3.4 4.1,-3.4 2.3,0 3.8,0.6 3.8,3.3 v 5.4 c 0,0.5 0.2,0.8 0.7,0.8 0.5,0 0.3,0 0.4,0 v 1 c -0.3,0 -0.5,0 -0.8,0 -1.3,0 -1.5,-0.7 -1.5,-1.8 v 0 c -0.9,1.3 -1.8,2.1 -3.7,2.1 -1.9,0 -3.4,-0.9 -3.4,-3 0,-2.1 2.8,-3 5.5,-3.3 1,-0.1 1.6,-0.3 1.6,-1.4 0,-1.7 -1.2,-2.1 -2.7,-2.1 -1.5,0 -2.7,0.7 -2.7,2.4 h -1.2 z m 6.6,1.5 v 0 c -0.2,0.3 -0.7,0.4 -1,0.5 -2.1,0.4 -4.8,0.4 -4.8,2.4 0,2 1.1,2 2.3,2 1.9,0 3.6,-1.2 3.6,-3.2 v -1.6 z"
       id="path767" />
    <path
       class="cls-2"
       d="m 291.4,242.8 h 1.5 l 5.5,14.1 H 297 l -1.7,-4.4 h -6.4 l -1.7,4.4 h -1.4 l 5.7,-14.1 z m -2.2,8.6 h 5.6 l -2.7,-7.2 -2.8,7.2 z"
       id="path769" />
    <path
       class="cls-2"
       d="m 300.7,256.9 v -2.1 h 1.7 v 2.1 z"
       id="path771" />
  </g>
  <g
     id="g781"
     transform="translate(-2.5932203,-233.38983)">
    <path
       class="cls-2"
       d="m 737.7,308.9 v -10.7 h 1.4 v 9.1 h 6.1 v -8.1 h 1.4 v 8.1 h 8 v 1.6 h -16.8 z"
       id="path775" />
    <path
       class="cls-2"
       d="m 737.4,288.6 c 0,-5.3 4.2,-7.9 8.8,-7.9 4.6,0 8.8,2.6 8.8,7.9 0,5.3 -4.2,7.9 -8.8,7.9 -4.6,0 -8.8,-2.6 -8.8,-7.9 z m 16.1,0 c 0,-4.4 -3.7,-6.3 -7.4,-6.3 -3.7,0 -7.4,1.9 -7.4,6.3 0,4.4 3.7,6.3 7.4,6.3 3.7,0 7.4,-1.9 7.4,-6.3 z"
       id="path777" />
    <path
       class="cls-2"
       d="m 737.7,277.6 v -7.7 c 0,-2.8 1.3,-5.1 4.4,-5.1 3.1,0 3.9,1.1 4.3,3.3 v 0 c 0.3,-2.2 1.8,-2.8 3.8,-2.9 1.2,0 3.5,0 4.3,-0.8 v 1.8 c -0.7,0.4 -1.9,0.4 -2.6,0.4 -2.4,0.1 -5,0.3 -4.9,3.4 v 6.1 h 7.5 v 1.6 h -16.8 z m 8,-1.6 v -6 c 0,-2 -1.2,-3.6 -3.3,-3.6 -2.1,0 -3.3,1.2 -3.3,3.6 v 6 z"
       id="path779" />
  </g>
  <g
     id="g813"
     transform="translate(-2.5932203,-233.38983)">
    <path
       class="cls-4"
       d="m 210,351.9 c -0.2,8.7 6.1,11.4 13.8,11.4 7.7,0 11.2,-2.4 11.2,-8.6 0,-6.2 -4.8,-6.7 -8.7,-7.7 l -9.4,-2.3 c -5,-1.2 -9.6,-3.6 -9.6,-10.2 0,-6.6 2.7,-11.9 14.6,-11.9 11.9,0 15.7,4.5 15.7,13.2 h -4 c -0.2,-6.5 -5.6,-9.7 -11.6,-9.7 -6,0 -10.6,2.1 -10.6,8.4 0,6.3 3,5.6 6.4,6.5 l 10.3,2.6 c 6,1.6 11,4.2 11,11.2 0,7 -1.2,12.1 -16.2,12.1 -15,0 -17.4,-4.5 -16.9,-14.8 h 4 z"
       id="path783" />
    <path
       class="cls-4"
       d="m 244,323.5 h 18.8 c 7.6,0 12.6,4.5 12.6,12.1 0,7.6 -5,12.1 -12.6,12.1 H 248 v 18.2 h -4 z m 4,20.8 h 13.9 c 5.6,0 9.4,-2.8 9.4,-8.7 0,-5.9 -3.9,-8.7 -9.4,-8.7 H 248 v 17.3 z"
       id="path785" />
    <path
       class="cls-4"
       d="m 286.5,323.5 h 4.5 l 16.6,42.4 h -4.3 l -5.2,-13.2 h -19.3 l -5.1,13.2 h -4.3 z m -6.5,25.8 h 16.7 l -8.2,-21.7 z"
       id="path787" />
    <path
       class="cls-4"
       d="m 340.2,336.3 c -1.4,-6.5 -6.8,-10.3 -13,-10.3 -11.2,0 -16,9.4 -16,18.6 0,9.2 4.7,18.6 16,18.6 11.3,0 12.8,-6.1 13.6,-13.6 h 4 c -1.1,10.4 -7.7,17 -17.6,17 -9.9,0 -20,-10.5 -20,-22.1 0,-11.6 6.6,-22.1 20,-22.1 13.4,0 16,4.8 17,13.7 h -4 z"
       id="path789" />
    <path
       class="cls-4"
       d="m 350.5,323.5 h 29.3 v 3.4 h -25.2 v 15.3 h 23.6 v 3.4 h -23.6 v 16.7 h 25.5 v 3.4 h -29.6 v -42.4 z"
       id="path791" />
    <path
       class="cls-4"
       d="m 400.1,323.5 h 33.6 v 3.4 h -14.8 v 38.9 h -4 v -38.9 h -14.8 z"
       id="path793" />
    <path
       class="cls-4"
       d="M 437.7,323.5 H 467 v 3.4 h -25.2 v 15.3 h 23.6 v 3.4 h -23.6 v 16.7 h 25.5 v 3.4 h -29.6 v -42.4 z"
       id="path795" />
    <path
       class="cls-4"
       d="m 472.9,323.5 h 4 v 38.9 h 23.7 v 3.4 h -27.8 v -42.4 z"
       id="path797" />
    <path
       class="cls-4"
       d="M 504.7,323.5 H 534 v 3.4 h -25.2 v 15.3 h 23.6 v 3.4 h -23.6 v 16.7 h 25.5 v 3.4 h -29.6 v -42.4 z"
       id="path799" />
    <path
       class="cls-4"
       d="m 541.8,351.9 c -0.2,8.7 6.1,11.4 13.8,11.4 7.7,0 11.2,-2.4 11.2,-8.6 0,-6.2 -4.8,-6.7 -8.7,-7.7 l -9.4,-2.3 c -5,-1.2 -9.6,-3.6 -9.6,-10.2 0,-6.6 2.7,-11.9 14.6,-11.9 11.9,0 15.7,4.5 15.7,13.2 h -4 c -0.2,-6.5 -5.6,-9.7 -11.6,-9.7 -6,0 -10.6,2.1 -10.6,8.4 0,6.3 3,5.6 6.4,6.5 l 10.3,2.6 c 6,1.6 11,4.2 11,11.2 0,7 -1.2,12.1 -16.2,12.1 -15,0 -17.4,-4.5 -16.9,-14.8 h 4 z"
       id="path801" />
    <path
       class="cls-4"
       d="m 607.7,336.3 c -1.4,-6.5 -6.8,-10.3 -13,-10.3 -11.2,0 -16,9.4 -16,18.6 0,9.2 4.7,18.6 16,18.6 11.3,0 12.8,-6.1 13.6,-13.6 h 4 c -1.1,10.4 -7.7,17 -17.6,17 -9.9,0 -20,-10.5 -20,-22.1 0,-11.6 6.6,-22.1 20,-22.1 13.4,0 16,4.8 17,13.7 h -4 z"
       id="path803" />
    <path
       class="cls-4"
       d="m 635.7,322.6 c 13.3,0 19.9,10.5 19.9,22.1 0,11.6 -6.6,22.1 -19.9,22.1 -13.3,0 -20,-10.5 -20,-22.1 0,-11.6 6.6,-22.1 20,-22.1 z m 0,40.7 c 11.2,0 15.9,-9.4 15.9,-18.6 0,-9.2 -4.7,-18.6 -15.9,-18.6 -11.2,0 -16,9.4 -16,18.6 0,9.2 4.7,18.6 16,18.6 z"
       id="path805" />
    <path
       class="cls-4"
       d="m 660.4,323.5 h 18.8 c 7.6,0 12.6,4.5 12.6,12.1 0,7.6 -5,12.1 -12.6,12.1 h -14.8 v 18.2 h -4 z m 4.1,20.8 h 13.9 c 5.6,0 9.4,-2.8 9.4,-8.7 0,-5.9 -3.9,-8.7 -9.4,-8.7 h -13.9 v 17.3 z"
       id="path807" />
    <path
       class="cls-4"
       d="m 696.4,323.5 h 29.3 v 3.4 h -25.2 v 15.3 h 23.6 v 3.4 h -23.6 v 16.7 H 726 v 3.4 h -29.6 v -42.4 z"
       id="path809" />
    <path
       class="cls-4"
       d="m 732.4,351.9 c -0.2,8.7 6.1,11.4 13.8,11.4 7.7,0 11.2,-2.4 11.2,-8.6 0,-6.2 -4.8,-6.7 -8.7,-7.7 l -9.4,-2.3 c -5,-1.2 -9.6,-3.6 -9.6,-10.2 0,-6.6 2.7,-11.9 14.6,-11.9 11.9,0 15.7,4.5 15.7,13.2 h -4 c -0.2,-6.5 -5.6,-9.7 -11.6,-9.7 -6,0 -10.6,2.1 -10.6,8.4 0,6.3 3,5.6 6.4,6.5 l 10.3,2.6 c 6,1.6 11,4.2 11,11.2 0,7 -1.2,12.1 -16.2,12.1 -15,0 -17.4,-4.5 -16.9,-14.8 h 4 z"
       id="path811" />
  </g>
  <g
     id="g931"
     transform="translate(-2.5932203,-233.38983)">
    <path
       class="cls-1"
       d="m 36,305.3 c 0,-36.2 29.4,-65.6 65.6,-65.6 36.2,0 65.6,29.3 65.6,65.6 0,36.3 -29.3,65.6 -65.6,65.6 C 65.3,370.9 36,341.6 36,305.3 Z"
       id="path815"
       style="fill:url(#linear-gradient)" />
    <path
       class="cls-5"
       d="m 101.6,235.9 c -38.3,0 -69.5,31.2 -69.5,69.5 0,38.3 31.2,69.5 69.5,69.5 38.3,0 69.5,-31.2 69.5,-69.5 0,-38.3 -31.2,-69.5 -69.5,-69.5 z m 0,136.3 c -36.8,0 -66.8,-29.9 -66.8,-66.7 0,-36.8 30,-66.7 66.8,-66.7 36.8,0 66.8,29.9 66.8,66.7 0,36.8 -30,66.7 -66.8,66.7 z"
       id="path817" />
    <path
       class="cls-6"
       d="m 69.6,291.8 c 0,0.3 -0.2,0.5 -0.5,0.5 -0.3,0 -0.5,-0.2 -0.5,-0.5 0,-0.3 0.2,-0.5 0.5,-0.5 0.3,0 0.5,0.2 0.5,0.5 z"
       id="path819" />
    <path
       class="cls-6"
       d="m 147.2,277.5 c 0,0.2 -0.3,0.4 -0.6,0.4 -0.3,0 -0.6,-0.2 -0.6,-0.4 0,-0.2 0.3,-0.4 0.6,-0.4 0.3,0 0.6,0.2 0.6,0.4 z"
       id="path821" />
    <path
       class="cls-6"
       d="m 126.4,257.3 c 0,0.3 -0.2,0.5 -0.5,0.5 -0.3,0 -0.5,-0.2 -0.5,-0.5 0,-0.3 0.2,-0.5 0.5,-0.5 0.3,0 0.5,0.2 0.5,0.5 z"
       id="path823" />
    <path
       class="cls-6"
       d="m 135,270.1 c 0,0.3 -0.2,0.5 -0.5,0.5 -0.3,0 -0.5,-0.2 -0.5,-0.5 0,-0.3 0.2,-0.5 0.5,-0.5 0.3,0 0.5,0.2 0.5,0.5 z"
       id="path825" />
    <path
       class="cls-6"
       d="m 144.4,289.5 c 0,0.4 -0.3,0.7 -0.6,0.7 -0.3,0 -0.7,-0.3 -0.7,-0.7 0,-0.4 0.3,-0.7 0.7,-0.7 0.4,0 0.6,0.3 0.6,0.7 z"
       id="path827" />
    <path
       class="cls-6"
       d="m 148.8,294.4 c 0,0.4 -0.3,0.6 -0.6,0.6 -0.3,0 -0.6,-0.3 -0.6,-0.6 0,-0.3 0.3,-0.6 0.6,-0.6 0.3,0 0.6,0.3 0.6,0.6 z"
       id="path829" />
    <path
       class="cls-6"
       d="m 77.7,263.2 c 0,0.3 -0.2,0.5 -0.5,0.5 -0.3,0 -0.5,-0.2 -0.5,-0.5 0,-0.3 0.2,-0.5 0.5,-0.5 0.3,0 0.5,0.2 0.5,0.5 z"
       id="path831" />
    <path
       class="cls-6"
       d="m 152.1,328.4 c 0,0.2 -0.2,0.4 -0.4,0.4 -0.2,0 -0.4,-0.2 -0.4,-0.4 0,-0.2 0.2,-0.4 0.4,-0.4 0.2,0 0.4,0.2 0.4,0.4 z"
       id="path833" />
    <path
       class="cls-6"
       d="m 141.9,303.2 c 0,0.3 -0.2,0.5 -0.5,0.5 -0.3,0 -0.5,-0.2 -0.5,-0.5 0,-0.3 0.2,-0.5 0.5,-0.5 0.3,0 0.5,0.2 0.5,0.5 z"
       id="path835" />
    <path
       class="cls-6"
       d="m 90.7,300.2 c 0,0.3 -0.2,0.5 -0.5,0.5 -0.3,0 -0.5,-0.2 -0.5,-0.5 0,-0.3 0.2,-0.5 0.5,-0.5 0.3,0 0.5,0.2 0.5,0.5 z"
       id="path837" />
    <path
       class="cls-6"
       d="m 101.3,301.6 c 0,0.3 -0.2,0.5 -0.5,0.5 -0.3,0 -0.5,-0.2 -0.5,-0.5 0,-0.3 0.2,-0.5 0.5,-0.5 0.3,0 0.5,0.2 0.5,0.5 z"
       id="path839" />
    <path
       class="cls-6"
       d="m 153.7,280.2 c 0,0.3 -0.2,0.5 -0.5,0.5 -0.3,0 -0.5,-0.2 -0.5,-0.5 0,-0.3 0.2,-0.5 0.5,-0.5 0.3,0 0.5,0.2 0.5,0.5 z"
       id="path841" />
    <path
       class="cls-6"
       d="m 125.8,291.9 c 0,0.2 -0.2,0.4 -0.4,0.4 -0.2,0 -0.4,-0.2 -0.4,-0.4 0,-0.2 0.2,-0.4 0.4,-0.4 0.2,0 0.4,0.2 0.4,0.4 z"
       id="path843" />
    <path
       class="cls-6"
       d="m 62.3,273.2 c 0,0.1 -0.1,0.3 -0.3,0.3 -0.2,0 -0.3,-0.1 -0.3,-0.3 0,-0.2 0.1,-0.3 0.3,-0.3 0.2,0 0.3,0.1 0.3,0.3 z"
       id="path845" />
    <path
       class="cls-6"
       d="m 109.8,288.4 c 0,0.1 -0.1,0.3 -0.3,0.3 -0.2,0 -0.3,-0.1 -0.3,-0.3 0,-0.2 0.1,-0.3 0.3,-0.3 0.2,0 0.3,0.1 0.3,0.3 z"
       id="path847" />
    <path
       class="cls-6"
       d="m 92.7,326.2 c 0,0.2 -0.1,0.3 -0.3,0.3 -0.2,0 -0.3,-0.1 -0.3,-0.3 0,-0.2 0.1,-0.3 0.3,-0.3 0.2,0 0.3,0.1 0.3,0.3 z"
       id="path849" />
    <path
       class="cls-6"
       d="m 82.5,289.5 c 0,0.2 -0.2,0.4 -0.4,0.4 -0.2,0 -0.4,-0.2 -0.4,-0.4 0,-0.2 0.2,-0.4 0.4,-0.4 0.2,0 0.4,0.2 0.4,0.4 z"
       id="path851" />
    <path
       class="cls-6"
       d="m 92.5,272.9 c 0,0.3 -0.2,0.5 -0.5,0.5 -0.3,0 -0.5,-0.2 -0.5,-0.5 0,-0.3 0.2,-0.5 0.5,-0.5 0.3,0 0.5,0.2 0.5,0.5 z"
       id="path853" />
    <path
       class="cls-6"
       d="m 96.5,249.7 c 0,0.2 -0.2,0.4 -0.4,0.4 -0.2,0 -0.4,-0.2 -0.4,-0.4 0,-0.2 0.2,-0.4 0.4,-0.4 0.2,0 0.4,0.2 0.4,0.4 z"
       id="path855" />
    <path
       class="cls-6"
       d="m 68.8,302.4 c 0,0.1 -0.1,0.3 -0.3,0.3 -0.2,0 -0.3,-0.1 -0.3,-0.3 0,-0.2 0.1,-0.3 0.3,-0.3 0.2,0 0.3,0.1 0.3,0.3 z"
       id="path857" />
    <path
       class="cls-6"
       d="m 66,308.3 c 0,0.4 -0.3,0.7 -0.7,0.7 -0.4,0 -0.7,-0.3 -0.7,-0.7 0,-0.4 0.3,-0.7 0.7,-0.7 0.4,0 0.7,0.3 0.7,0.7 z"
       id="path859" />
    <path
       class="cls-6"
       d="m 158.8,286.5 c 0,0.4 -0.3,0.7 -0.7,0.7 -0.4,0 -0.7,-0.3 -0.7,-0.7 0,-0.4 0.3,-0.7 0.7,-0.7 0.4,0 0.7,0.3 0.7,0.7 z"
       id="path861" />
    <path
       class="cls-6"
       d="m 159.9,309.3 c 0,0.4 -0.3,0.6 -0.6,0.6 -0.3,0 -0.7,-0.3 -0.7,-0.6 0,-0.3 0.3,-0.6 0.7,-0.6 0.4,0 0.6,0.3 0.6,0.6 z"
       id="path863" />
    <path
       class="cls-6"
       d="m 56.8,307.7 c 0,0.2 -0.2,0.4 -0.4,0.4 -0.2,0 -0.4,-0.2 -0.4,-0.4 0,-0.2 0.2,-0.4 0.4,-0.4 0.2,0 0.4,0.2 0.4,0.4 z"
       id="path865" />
    <path
       class="cls-6"
       d="m 154.8,272.2 c 0,0.3 -0.2,0.5 -0.5,0.5 -0.3,0 -0.5,-0.2 -0.5,-0.5 0,-0.3 0.2,-0.5 0.5,-0.5 0.3,0 0.5,0.2 0.5,0.5 z"
       id="path867" />
    <path
       class="cls-6"
       d="m 86.8,316 c 0,0.2 -0.2,0.4 -0.4,0.4 -0.2,0 -0.4,-0.2 -0.4,-0.4 0,-0.2 0.2,-0.4 0.4,-0.4 0.2,0 0.4,0.2 0.4,0.4 z"
       id="path869" />
    <path
       class="cls-6"
       d="m 80,315.4 c 0,0.3 -0.2,0.5 -0.5,0.5 -0.3,0 -0.5,-0.2 -0.5,-0.5 0,-0.3 0.2,-0.5 0.5,-0.5 0.3,0 0.5,0.2 0.5,0.5 z"
       id="path871" />
    <path
       class="cls-6"
       d="m 104.7,254.1 c 0,0.2 -0.2,0.4 -0.4,0.4 -0.2,0 -0.4,-0.2 -0.4,-0.4 0,-0.2 0.2,-0.4 0.4,-0.4 0.2,0 0.4,0.2 0.4,0.4 z"
       id="path873" />
    <path
       class="cls-6"
       d="m 78.3,280.2 c 0,0.6 -0.5,1.1 -1.1,1.1 -0.6,0 -1.1,-0.5 -1.1,-1.1 0,-0.6 0.5,-1.1 1.1,-1.1 0.6,0 1.1,0.5 1.1,1.1 z"
       id="path875" />
    <path
       class="cls-6"
       d="m 89.5,265.7 c 0,0.6 -0.5,1 -1,1 -0.5,0 -1,-0.5 -1,-1 0,-0.5 0.5,-1 1,-1 0.5,0 1,0.5 1,1 z"
       id="path877" />
    <path
       class="cls-6"
       d="m 104.1,275.8 c 0,0.5 -0.4,0.9 -0.9,0.9 -0.5,0 -0.9,-0.4 -0.9,-0.9 0,-0.5 0.4,-0.9 0.9,-0.9 0.5,0 0.9,0.4 0.9,0.9 z"
       id="path879" />
    <path
       class="cls-6"
       d="m 53,294.2 c 0,0.5 -0.4,1 -1,1 -0.6,0 -1,-0.4 -1,-1 0,-0.6 0.4,-1 1,-1 0.6,0 1,0.4 1,1 z"
       id="path881" />
    <path
       class="cls-6"
       d="m 57.5,272 c 0,0.4 -0.4,0.8 -0.8,0.8 -0.4,0 -0.8,-0.4 -0.8,-0.8 0,-0.4 0.4,-0.8 0.8,-0.8 0.4,0 0.8,0.4 0.8,0.8 z"
       id="path883" />
    <path
       class="cls-6"
       d="m 151.5,296.7 c 0,0.3 -0.3,0.6 -0.6,0.6 -0.3,0 -0.6,-0.3 -0.6,-0.6 0,-0.3 0.3,-0.6 0.6,-0.6 0.3,0 0.6,0.3 0.6,0.6 z"
       id="path885" />
    <path
       class="cls-6"
       d="m 85.3,248.5 c 0,0.2 -0.1,0.3 -0.3,0.3 -0.2,0 -0.3,-0.1 -0.3,-0.3 0,-0.2 0.1,-0.3 0.3,-0.3 0.2,0 0.3,0.1 0.3,0.3 z"
       id="path887" />
    <path
       class="cls-6"
       d="m 126.9,271 c 0,0.1 0,0.2 -0.2,0.2 -0.2,0 -0.2,-0.1 -0.2,-0.2 0,-0.1 0,-0.2 0.2,-0.2 0.2,0 0.2,0.1 0.2,0.2 z"
       id="path889" />
    <path
       class="cls-6"
       d="m 100.4,248.8 c 0,0.2 0.2,0.4 0.4,0.4 0.2,0 0.4,-0.2 0.4,-0.4 0,-0.2 -0.2,-0.3 -0.4,-0.3 -0.2,0 -0.4,0.2 -0.4,0.3 z"
       id="path891" />
    <path
       class="cls-6"
       d="m 71.7,305.6 c 0,0.2 -0.1,0.3 -0.3,0.3 -0.2,0 -0.3,-0.1 -0.3,-0.3 0,-0.2 0.1,-0.3 0.3,-0.3 0.2,0 0.3,0.1 0.3,0.3 z"
       id="path893" />
    <path
       class="cls-6"
       d="m 55.6,313 c 0,0.2 0.2,0.4 0.4,0.4 0.2,0 0.4,-0.2 0.4,-0.4 0,-0.2 -0.2,-0.4 -0.4,-0.4 -0.2,0 -0.4,0.2 -0.4,0.4 z"
       id="path895" />
    <path
       class="cls-6"
       d="m 43.3,309 c 0,0.2 0.2,0.4 0.4,0.4 0.2,0 0.4,-0.2 0.4,-0.4 0,-0.2 -0.2,-0.4 -0.4,-0.4 -0.2,0 -0.4,0.2 -0.4,0.4 z"
       id="path897" />
    <path
       class="cls-6"
       d="m 61.5,326.3 c 0,0.2 -0.1,0.3 -0.3,0.3 -0.2,0 -0.3,-0.1 -0.3,-0.3 0,-0.2 0.1,-0.3 0.3,-0.3 0.2,0 0.3,0.1 0.3,0.3 z"
       id="path899" />
    <path
       class="cls-6"
       d="m 156.7,291.5 c 0,0.2 -0.1,0.3 -0.3,0.3 -0.2,0 -0.3,-0.1 -0.3,-0.3 0,-0.2 0.1,-0.3 0.3,-0.3 0.2,0 0.3,0.1 0.3,0.3 z"
       id="path901" />
    <path
       class="cls-6"
       d="m 73,282.6 c 0,0.2 -0.1,0.3 -0.3,0.3 -0.2,0 -0.3,-0.1 -0.3,-0.3 0,-0.2 0.1,-0.3 0.3,-0.3 0.2,0 0.3,0.1 0.3,0.3 z"
       id="path903" />
    <path
       class="cls-6"
       d="m 64.2,259 c 0,0.2 -0.1,0.3 -0.3,0.3 -0.2,0 -0.3,-0.1 -0.3,-0.3 0,-0.2 0.1,-0.3 0.3,-0.3 0.2,0 0.3,0.1 0.3,0.3 z"
       id="path905" />
    <path
       class="cls-6"
       d="m 150.7,302.1 c 0,0.2 -0.2,0.4 -0.4,0.4 -0.2,0 -0.4,-0.2 -0.4,-0.4 0,-0.2 0.2,-0.4 0.4,-0.4 0.2,0 0.4,0.2 0.4,0.4 z"
       id="path907" />
    <path
       class="cls-6"
       d="m 118.7,300.5 c 0,0.2 -0.1,0.3 -0.3,0.3 -0.2,0 -0.3,-0.1 -0.3,-0.3 0,-0.2 0.1,-0.3 0.3,-0.3 0.2,0 0.3,0.1 0.3,0.3 z"
       id="path909" />
    <path
       class="cls-6"
       d="m 83.2,320.2 c 0,0.3 -0.3,0.6 -0.6,0.6 -0.3,0 -0.6,-0.3 -0.6,-0.6 0,-0.3 0.3,-0.6 0.6,-0.6 0.3,0 0.6,0.3 0.6,0.6 z"
       id="path911" />
    <path
       class="cls-6"
       d="m 96.7,331.5 c 0,0.2 -0.2,0.4 -0.4,0.4 -0.2,0 -0.4,-0.2 -0.4,-0.4 0,-0.2 0.2,-0.4 0.4,-0.4 0.2,0 0.4,0.2 0.4,0.4 z"
       id="path913" />
    <path
       class="cls-6"
       d="m 80.8,298.1 c 0,0.2 -0.1,0.3 -0.3,0.3 -0.2,0 -0.3,-0.1 -0.3,-0.3 0,-0.2 0.1,-0.3 0.3,-0.3 0.2,0 0.3,0.1 0.3,0.3 z"
       id="path915" />
    <path
       class="cls-6"
       d="m 114.3,327.6 c 0,0.2 -0.1,0.3 -0.3,0.3 -0.2,0 -0.3,-0.1 -0.3,-0.3 0,-0.2 0.1,-0.3 0.3,-0.3 0.2,0 0.3,0.1 0.3,0.3 z"
       id="path917" />
    <path
       class="cls-6"
       d="m 76.5,328.2 c 0,0.2 -0.1,0.3 -0.3,0.3 -0.2,0 -0.3,-0.1 -0.3,-0.3 0,-0.2 0.1,-0.3 0.3,-0.3 0.2,0 0.3,0.1 0.3,0.3 z"
       id="path919" />
    <path
       class="cls-6"
       d="m 52.3,333.2 c 0,0.2 -0.1,0.3 -0.3,0.3 -0.2,0 -0.3,-0.1 -0.3,-0.3 0,-0.2 0.1,-0.3 0.3,-0.3 0.2,0 0.3,0.1 0.3,0.3 z"
       id="path921" />
    <path
       class="cls-6"
       d="m 149.1,283.7 c 0,0.2 -0.1,0.3 -0.3,0.3 -0.2,0 -0.3,-0.1 -0.3,-0.3 0,-0.2 0.1,-0.3 0.3,-0.3 0.2,0 0.3,0.1 0.3,0.3 z"
       id="path923" />
    <path
       class="cls-6"
       d="m 94.5,273.9 c 0,0.2 -0.1,0.3 -0.3,0.3 -0.2,0 -0.3,-0.1 -0.3,-0.3 0,-0.2 0.1,-0.3 0.3,-0.3 0.2,0 0.3,0.1 0.3,0.3 z"
       id="path925" />
    <path
       class="cls-6"
       d="m 148,290.9 c 0,0.2 -0.1,0.3 -0.3,0.3 -0.2,0 -0.3,-0.1 -0.3,-0.3 0,-0.2 0.1,-0.3 0.3,-0.3 0.2,0 0.3,0.1 0.3,0.3 z"
       id="path927" />
    <path
       class="cls-3"
       d="m 136.7,342.2 -3.7,-0.5 c -0.9,-3.9 -1.7,-7.9 -2.6,-11.8 l -1.6,-7.5 8.7,6.5 c 6,4.5 12.1,9 18.2,13.4 0.1,-0.2 0.3,-0.4 0.4,-0.6 -5.9,-4.7 -11.8,-9.3 -17.7,-13.9 l -10,-7.8 -1.4,-6.7 22.9,3.9 c 0.3,0 0.5,-0.1 0.6,-0.4 0,-0.3 -0.1,-0.5 -0.4,-0.6 l -6.1,-1.1 c 0,0 0,-0.2 0,-0.2 L 113.6,247 c 0,0 0,0 0,0 -0.1,-0.3 -0.4,-0.5 -0.8,-0.5 l -0.2,-2.3 c 0,-0.3 -0.2,-0.5 -0.5,-0.5 -0.3,0 -0.5,0.2 -0.5,0.5 v 5.9 c 0,0 -0.2,0.2 -0.3,0.3 L 80,303.2 73.5,302 c 0,0 0,0 0,0 -0.6,-0.1 -1.1,0.3 -1.2,0.9 -0.1,0.6 0.3,1.1 0.9,1.2 l 29.6,5 v 0.7 c -0.1,0 -0.8,4.4 -0.8,4.4 l -41.4,17.2 -3.4,-0.5 c 0,0 0,0 0,0 -0.6,0 -1.2,0.4 -1.3,1 0,0.6 0.4,1.2 1,1.3 l 41.6,5.2 v 0.4 c -1.3,8.9 -3.4,21.9 -4.7,31.5 0.4,0 0.7,0 1.1,0.1 1.6,-9.5 3.4,-22.6 4.8,-31.5 v -0.4 c 0,0 10.5,1.3 10.5,1.3 h 0.9 c 0,0.1 -1.6,30.5 -1.6,30.5 3.6,-0.4 7.1,-1.1 10.4,-2.1 l -2.7,-27.5 11,1.4 c 0.8,4.8 2.6,15.5 3.7,21.3 0.3,-0.2 0.7,-0.3 1,-0.5 -0.9,-5.8 -2.6,-16 -3.4,-20.6 l 2.6,0.3 c 0.8,4 2.5,13.3 3.6,18.7 0.4,-0.3 0.8,-0.5 1.2,-0.8 -1,-5.4 -2.6,-14 -3.4,-17.8 l 3.2,0.4 c 5.6,0.7 11.2,1.5 16.8,2.2 0.3,-0.3 0.5,-0.7 0.8,-1.1 -5.8,-0.7 -11.6,-1.5 -17.4,-2.3 z m -55.5,-38.8 29.4,-48.3 -7.6,52.4 -21.7,-4 z m 22.6,5.9 6.5,1.1 v 0.4 c 0,0 -7.1,3 -7.1,3 l 0.5,-3.7 v -0.7 z m -5.2,27.6 -35.6,-5 38.6,-15.3 z m 12.4,1.7 h -0.8 c 0,-0.1 -10.4,-1.6 -10.4,-1.6 l 3,-20.9 7.5,-3 0.2,9.3 c -3.2,0.3 -5.4,1 -5.4,1.8 0,0.8 0.8,1 2.2,1.3 0.2,2.3 1.8,4.2 4,4.9 l -0.4,8.1 z m 0.5,-29.6 -7.4,-1.4 7.6,-52.4 0.9,53.4 c -0.4,0.1 -0.8,0.3 -1.2,0.4 z m 12.7,3.8 1.5,0.3 1.2,5.8 -2,-1.5 m -2.2,-13.1 -6.1,-35.3 7.1,34.5 1.7,8.2 -1.5,-0.3 z m 0.9,11.9 -5.8,-4.5 5.2,0.9 0.6,3.7 z m 19,-1.4 -16,-3 -1.9,-8.6 -10.7,-49.6 -0.3,-1.7 z m -21.1,-10.3 1.1,6.7 -5.7,-1.1 v -0.8 c 0,0 0,0 0,0 l -3.5,-52 8.1,47.3 z m -4.6,34.9 -0.9,-9 c 2.1,-0.8 3.5,-2.6 3.7,-4.8 1.3,-0.4 2.2,-0.8 2.2,-1.3 0,-0.5 -1.7,-1.4 -4.1,-1.7 l -0.5,-8.4 c 0,0 0,0 0,0 v -0.5 c 0,0 6.8,5.1 6.8,5.1 l 2.2,12.6 c 0.6,3.2 1.1,6.4 1.7,9.6 l -11,-1.5 z m 12.2,1.7 c -0.6,-3.3 -1.2,-6.7 -1.7,-10 l -2,-11.3 2,1.5 1.8,8.8 c 0.8,3.8 1.6,7.6 2.3,11.4 l -2.5,-0.4 z"
       id="path929" />
  </g>
</svg>
