<?xml version="1.0" encoding="UTF-8" standalone="no"?>
<!-- Generator: Adobe Illustrator 24.1.2, SVG Export Plug-In . SVG Version: 6.00 Build 0)  -->

<svg
   version="1.1"
   id="Layer_1"
   x="0px"
   y="0px"
   viewBox="0 0 240.4 215.4"
   xml:space="preserve"
   sodipodi:docname="mast-heart.svg"
   width="240.39999"
   height="215.39999"
   inkscape:version="1.2.2 (b0a8486, 2022-12-01)"
   xmlns:inkscape="http://www.inkscape.org/namespaces/inkscape"
   xmlns:sodipodi="http://sodipodi.sourceforge.net/DTD/sodipodi-0.dtd"
   xmlns="http://www.w3.org/2000/svg"
   xmlns:svg="http://www.w3.org/2000/svg"><defs
   id="defs858" /><sodipodi:namedview
   id="namedview856"
   pagecolor="#ffffff"
   bordercolor="#000000"
   borderopacity="0.25"
   inkscape:showpageshadow="2"
   inkscape:pageopacity="0.0"
   inkscape:pagecheckerboard="0"
   inkscape:deskcolor="#d1d1d1"
   showgrid="false"
   inkscape:zoom="1.1137329"
   inkscape:cx="-24.242796"
   inkscape:cy="82.156144"
   inkscape:window-width="1386"
   inkscape:window-height="731"
   inkscape:window-x="0"
   inkscape:window-y="25"
   inkscape:window-maximized="0"
   inkscape:current-layer="Layer_1" />
<style
   type="text/css"
   id="style483">
	.st0{fill:#89B8E3;}
	.st1{fill:url(#SVGID_1_);}
	.st2{fill:#FFFFFF;}
	.st3{fill:url(#SVGID_2_);}
</style>
<path
   class="st0"
   d="m 475.8,85.2 c 0,48.9 -39.7,88.6 -88.6,88.6 -48.9,0 -88.6,-39.7 -88.6,-88.6 0,-49 39.7,-88.6 88.6,-88.6 48.9,-0.1 88.6,39.6 88.6,88.6 z M 387.2,0 C 340.1,0 302,38.1 302,85.2 c 0,47 38.1,85.2 85.2,85.2 47,0 85.2,-38.1 85.2,-85.2 C 472.3,38.1 434.2,0 387.2,0 Z"
   id="path485" />
<linearGradient
   id="SVGID_1_"
   gradientUnits="userSpaceOnUse"
   x1="259.32999"
   y1="390.95151"
   x2="462.14331"
   y2="390.95151">
	<stop
   offset="0"
   style="stop-color:#055694"
   id="stop487" />
	<stop
   offset="8.832693e-03"
   style="stop-color:#075795"
   id="stop489" />
	<stop
   offset="0.2072"
   style="stop-color:#246BA6"
   id="stop491" />
	<stop
   offset="0.4067"
   style="stop-color:#347BB6"
   id="stop493" />
	<stop
   offset="0.6057"
   style="stop-color:#3D88C3"
   id="stop495" />
	<stop
   offset="0.8037"
   style="stop-color:#4390CC"
   id="stop497" />
	<stop
   offset="1"
   style="stop-color:#4493D0"
   id="stop499" />
</linearGradient>
<path
   class="st1"
   d="m 360.9,340.6 c -5.5,-6 -11.8,-13.5 -17.6,-19.2 -11.4,-11.2 -25.1,-16.6 -41.2,-15 -16.8,1.7 -29.3,10.1 -37.4,24.9 -5.9,10.7 -6.5,22.3 -4.5,34.1 1.8,10.6 6.4,19.9 12.6,28.6 7.4,10.4 81.6,76.8 87.8,81.9 0.6,-0.5 1.2,-0.9 1.7,-1.3 7.7,-6.4 83.7,-75.9 90.2,-86.8 7.9,-13.3 11.2,-27.5 8.7,-42.9 -3.6,-21.6 -22.8,-38.1 -44.7,-38.6 -13.9,-0.4 -26,4.2 -36.5,13.3 -5.8,5.1 -10.8,10.9 -15.8,16.8 z"
   id="path502"
   style="fill:url(#SVGID_1_)" />
<g
   id="g506">
	<path
   class="st0"
   d="m 360.9,320.3 c 2,-2.1 3.9,-4.2 5.8,-6.2 6.6,-6.7 13.9,-12.4 22.6,-16.2 9.7,-4.2 19.8,-5.9 30.3,-5 20.3,1.8 36.1,11.3 47,28.5 7.2,11.2 9.6,23.7 9,37 -0.9,19 -8.9,35 -20.6,49.5 -10.5,12.9 -71.7,67.1 -90.5,82.5 -0.9,0.8 -1.9,1.5 -2.8,2.4 -0.7,0.7 -1.2,0.6 -1.9,0 -9.5,-7.8 -91.2,-81.2 -99.2,-92.7 -6.9,-10 -12,-20.9 -13.8,-33 -2.7,-17.8 -0.2,-34.5 10.6,-49.2 10.3,-14 24.1,-22.2 41.3,-24.4 20.6,-2.6 38.3,3.8 53.2,18 2.6,2.5 5.1,5.2 7.7,7.9 0.6,0.1 0.9,0.4 1.3,0.9 z m 0,155.5 c 0.6,-0.5 1.2,-0.9 1.7,-1.3 7.7,-6.4 83.7,-75.9 90.2,-86.8 7.9,-13.3 11.2,-27.5 8.7,-42.9 -3.6,-21.6 -22.8,-38.1 -44.7,-38.6 -13.9,-0.4 -26,4.2 -36.5,13.3 -5.8,5.1 -10.8,10.9 -15.8,16.8 -1.2,1.4 -2.4,2.8 -3.6,4.3 -0.4,-0.5 -0.7,-0.8 -1,-1.1 -5.5,-6 -10.7,-12.4 -16.5,-18.1 -11.4,-11.2 -25.1,-16.6 -41.2,-15 -16.8,1.7 -29.3,10.1 -37.4,24.9 -5.9,10.7 -6.5,22.3 -4.5,34.1 1.8,10.6 6.4,19.9 12.6,28.6 7.6,10.3 81.8,76.7 88,81.8 z"
   id="path504" />
</g>
<g
   id="g618">
	<path
   class="st2"
   d="m 366.9,85.1 c 0,0.3 -0.3,0.5 -0.5,0.5 -0.3,0 -0.5,-0.3 -0.5,-0.5 0,-0.2 0.3,-0.5 0.5,-0.5 0.3,-0.1 0.5,0.2 0.5,0.5 z"
   id="path508" />
	<path
   class="st2"
   d="m 454.9,68.9 c 0,0.3 -0.3,0.5 -0.6,0.5 -0.3,0 -0.6,-0.3 -0.6,-0.5 0,-0.2 0.3,-0.5 0.6,-0.5 0.3,0 0.6,0.2 0.6,0.5 z"
   id="path510" />
	<path
   class="st2"
   d="m 431.3,45.9 c 0,0.4 -0.3,0.6 -0.6,0.6 -0.3,0 -0.6,-0.3 -0.6,-0.6 0,-0.3 0.3,-0.6 0.6,-0.6 0.3,0 0.6,0.3 0.6,0.6 z"
   id="path512" />
	<path
   class="st2"
   d="m 441,60.5 c 0,0.4 -0.3,0.6 -0.6,0.6 -0.3,0 -0.6,-0.3 -0.6,-0.6 0,-0.3 0.3,-0.6 0.6,-0.6 0.3,0 0.6,0.3 0.6,0.6 z"
   id="path514" />
	<path
   class="st2"
   d="m 451.7,82.4 c 0,0.4 -0.4,0.7 -0.7,0.7 -0.4,0 -0.7,-0.4 -0.7,-0.7 0,-0.4 0.4,-0.7 0.7,-0.7 0.4,0 0.7,0.3 0.7,0.7 z"
   id="path516" />
	<path
   class="st2"
   d="m 456.7,88.1 c 0,0.4 -0.4,0.7 -0.7,0.7 -0.4,0 -0.7,-0.4 -0.7,-0.7 0,-0.3 0.4,-0.7 0.7,-0.7 0.4,-0.1 0.7,0.2 0.7,0.7 z"
   id="path518" />
	<path
   class="st2"
   d="m 376,52.6 c 0,0.4 -0.3,0.6 -0.6,0.6 -0.3,0 -0.6,-0.3 -0.6,-0.6 0,-0.3 0.3,-0.6 0.6,-0.6 0.4,0.1 0.6,0.4 0.6,0.6 z"
   id="path520" />
	<path
   class="st2"
   d="m 460.4,126.6 c 0,0.3 -0.2,0.4 -0.4,0.4 -0.3,0 -0.4,-0.2 -0.4,-0.4 0,-0.2 0.2,-0.4 0.4,-0.4 0.3,-0.1 0.4,0.1 0.4,0.4 z"
   id="path522" />
	<path
   class="st2"
   d="m 448.9,98 c 0,0.4 -0.3,0.6 -0.6,0.6 -0.3,0 -0.6,-0.3 -0.6,-0.6 0,-0.4 0.3,-0.6 0.6,-0.6 0.3,0 0.6,0.3 0.6,0.6 z"
   id="path524" />
	<path
   class="st2"
   d="m 390.8,94.6 c 0,0.4 -0.3,0.6 -0.6,0.6 -0.3,0 -0.6,-0.3 -0.6,-0.6 0,-0.3 0.3,-0.6 0.6,-0.6 0.3,0 0.6,0.2 0.6,0.6 z"
   id="path526" />
	<path
   class="st2"
   d="m 402.9,96.2 c 0,0.4 -0.3,0.6 -0.6,0.6 -0.3,0 -0.6,-0.3 -0.6,-0.6 0,-0.4 0.3,-0.6 0.6,-0.6 0.3,0 0.6,0.2 0.6,0.6 z"
   id="path528" />
	<path
   class="st2"
   d="m 462.2,71.9 c 0,0.4 -0.3,0.6 -0.6,0.6 -0.3,0 -0.6,-0.3 -0.6,-0.6 0,-0.3 0.3,-0.6 0.6,-0.6 0.3,0 0.6,0.3 0.6,0.6 z"
   id="path530" />
	<path
   class="st2"
   d="m 430.7,85.2 c 0,0.3 -0.2,0.4 -0.4,0.4 -0.3,0 -0.4,-0.2 -0.4,-0.4 0,-0.2 0.2,-0.4 0.4,-0.4 0.1,0 0.4,0.2 0.4,0.4 z"
   id="path532" />
	<path
   class="st2"
   d="m 358.6,63.9 c 0,0.2 -0.1,0.3 -0.3,0.3 -0.2,0 -0.3,-0.1 -0.3,-0.3 0,-0.2 0.1,-0.3 0.3,-0.3 0.2,0.1 0.3,0.1 0.3,0.3 z"
   id="path534" />
	<path
   class="st2"
   d="m 412.5,81.2 c 0,0.2 -0.1,0.3 -0.3,0.3 -0.2,0 -0.3,-0.2 -0.3,-0.3 0,-0.2 0.2,-0.3 0.3,-0.3 0.1,0 0.3,0.2 0.3,0.3 z"
   id="path536" />
	<path
   class="st2"
   d="m 393.1,124.1 c 0,0.2 -0.2,0.4 -0.4,0.4 -0.2,0 -0.4,-0.2 -0.4,-0.4 0,-0.2 0.2,-0.4 0.4,-0.4 0.2,0.1 0.4,0.2 0.4,0.4 z"
   id="path538" />
	<path
   class="st2"
   d="m 381.4,82.5 c 0,0.3 -0.2,0.4 -0.4,0.4 -0.3,0 -0.4,-0.2 -0.4,-0.4 0,-0.2 0.2,-0.4 0.4,-0.4 0.3,-0.1 0.4,0.1 0.4,0.4 z"
   id="path540" />
	<path
   class="st2"
   d="m 392.8,63.6 c 0,0.4 -0.3,0.6 -0.6,0.6 -0.4,0 -0.6,-0.3 -0.6,-0.6 0,-0.3 0.3,-0.6 0.6,-0.6 0.3,0 0.6,0.2 0.6,0.6 z"
   id="path542" />
	<path
   class="st2"
   d="m 397.4,37.3 c 0,0.3 -0.2,0.4 -0.4,0.4 -0.3,0 -0.4,-0.2 -0.4,-0.4 0,-0.3 0.2,-0.4 0.4,-0.4 0.2,0 0.4,0.2 0.4,0.4 z"
   id="path544" />
	<path
   class="st2"
   d="m 365.9,97.1 c 0,0.2 -0.1,0.3 -0.3,0.3 -0.2,0 -0.3,-0.1 -0.3,-0.3 0,-0.2 0.1,-0.3 0.3,-0.3 0.2,0 0.3,0.1 0.3,0.3 z"
   id="path546" />
	<path
   class="st2"
   d="m 362.8,103.8 c 0,0.4 -0.4,0.8 -0.8,0.8 -0.4,0 -0.8,-0.4 -0.8,-0.8 0,-0.4 0.4,-0.8 0.8,-0.8 0.4,0 0.8,0.4 0.8,0.8 z"
   id="path548" />
	<path
   class="st2"
   d="m 468,79.1 c 0,0.4 -0.4,0.7 -0.8,0.7 -0.4,0 -0.8,-0.4 -0.8,-0.7 0,-0.4 0.4,-0.7 0.8,-0.7 0.4,-0.1 0.8,0.3 0.8,0.7 z"
   id="path550" />
	<path
   class="st2"
   d="m 469.2,104.9 c 0,0.4 -0.4,0.7 -0.7,0.7 -0.4,0 -0.7,-0.4 -0.7,-0.7 0,-0.4 0.4,-0.7 0.7,-0.7 0.4,0 0.7,0.2 0.7,0.7 z"
   id="path552" />
	<path
   class="st2"
   d="m 352.4,103.1 c 0,0.3 -0.3,0.5 -0.5,0.5 -0.2,0 -0.5,-0.2 -0.5,-0.5 0,-0.3 0.3,-0.5 0.5,-0.5 0.3,0 0.5,0.2 0.5,0.5 z"
   id="path554" />
	<path
   class="st2"
   d="m 463.5,62.9 c 0,0.4 -0.3,0.6 -0.6,0.6 -0.3,0 -0.6,-0.3 -0.6,-0.6 0,-0.3 0.3,-0.6 0.6,-0.6 0.3,0 0.6,0.2 0.6,0.6 z"
   id="path556" />
	<path
   class="st2"
   d="m 386.4,112.5 c 0,0.3 -0.2,0.4 -0.4,0.4 -0.3,0 -0.4,-0.2 -0.4,-0.4 0,-0.2 0.2,-0.4 0.4,-0.4 0.2,0 0.4,0.2 0.4,0.4 z"
   id="path558" />
	<path
   class="st2"
   d="m 378.6,111.8 c 0,0.4 -0.3,0.6 -0.6,0.6 -0.4,0 -0.6,-0.3 -0.6,-0.6 0,-0.4 0.3,-0.6 0.6,-0.6 0.3,0.1 0.6,0.3 0.6,0.6 z"
   id="path560" />
	<path
   class="st2"
   d="m 406.7,42.2 c 0,0.3 -0.2,0.4 -0.4,0.4 -0.3,0 -0.5,-0.2 -0.5,-0.4 0,-0.3 0.2,-0.4 0.5,-0.4 0.2,0 0.4,0.2 0.4,0.4 z"
   id="path562" />
	<path
   class="st2"
   d="m 376.7,71.9 c 0,0.7 -0.5,1.2 -1.2,1.2 -0.7,0 -1.2,-0.5 -1.2,-1.2 0,-0.6 0.5,-1.2 1.2,-1.2 0.7,0 1.2,0.6 1.2,1.2 z"
   id="path564" />
	<path
   class="st2"
   d="m 389.4,55.5 c 0,0.6 -0.5,1.2 -1.2,1.2 -0.7,0 -1.2,-0.5 -1.2,-1.2 0,-0.7 0.5,-1.2 1.2,-1.2 0.7,0 1.2,0.6 1.2,1.2 z"
   id="path566" />
	<path
   class="st2"
   d="m 406,66.9 c 0,0.5 -0.4,1 -1,1 -0.6,0 -1,-0.4 -1,-1 0,-0.6 0.4,-1 1,-1 0.5,0 1,0.4 1,1 z"
   id="path568" />
	<path
   class="st2"
   d="m 348,87.7 c 0,0.6 -0.5,1.2 -1.2,1.2 -0.7,0 -1.2,-0.5 -1.2,-1.2 0,-0.6 0.5,-1.2 1.2,-1.2 0.7,0.2 1.2,0.6 1.2,1.2 z"
   id="path570" />
	<path
   class="st2"
   d="m 353.1,62.6 c 0,0.5 -0.4,0.9 -0.9,0.9 -0.5,0 -0.9,-0.4 -0.9,-0.9 0,-0.5 0.4,-0.9 0.9,-0.9 0.5,0 0.9,0.4 0.9,0.9 z"
   id="path572" />
	<path
   class="st2"
   d="m 459.7,90.6 c 0,0.4 -0.3,0.6 -0.6,0.6 -0.3,0 -0.6,-0.3 -0.6,-0.6 0,-0.4 0.3,-0.6 0.6,-0.6 0.4,0 0.6,0.2 0.6,0.6 z"
   id="path574" />
	<path
   class="st2"
   d="m 384.6,35.9 c 0,0.2 -0.2,0.4 -0.4,0.4 -0.2,0 -0.4,-0.2 -0.4,-0.4 0,-0.2 0.2,-0.4 0.4,-0.4 0.3,0.1 0.4,0.2 0.4,0.4 z"
   id="path576" />
	<path
   class="st2"
   d="m 431.9,61.4 c 0,0.2 -0.1,0.3 -0.3,0.3 -0.2,0 -0.3,-0.1 -0.3,-0.3 0,-0.2 0.1,-0.3 0.3,-0.3 0.1,0.1 0.3,0.2 0.3,0.3 z"
   id="path578" />
	<path
   class="st2"
   d="m 401.8,36.3 c 0,0.2 0.2,0.4 0.4,0.4 0.3,0 0.4,-0.2 0.4,-0.4 0,-0.2 -0.2,-0.4 -0.4,-0.4 -0.2,0 -0.4,0.2 -0.4,0.4 z"
   id="path580" />
	<path
   class="st2"
   d="m 369.2,100.8 c 0,0.2 -0.2,0.4 -0.4,0.4 -0.2,0 -0.4,-0.2 -0.4,-0.4 0,-0.2 0.2,-0.4 0.4,-0.4 0.3,0 0.4,0.2 0.4,0.4 z"
   id="path582" />
	<path
   class="st2"
   d="m 351,109.1 c 0,0.3 0.2,0.5 0.4,0.5 0.2,0 0.4,-0.2 0.4,-0.5 0,-0.3 -0.2,-0.4 -0.4,-0.4 -0.2,-0.1 -0.4,0.1 -0.4,0.4 z"
   id="path584" />
	<path
   class="st2"
   d="m 337,104.6 c 0,0.3 0.2,0.5 0.4,0.5 0.3,0 0.4,-0.2 0.4,-0.5 0,-0.3 -0.2,-0.4 -0.4,-0.4 -0.1,-0.1 -0.4,0.1 -0.4,0.4 z"
   id="path586" />
	<path
   class="st2"
   d="m 357.6,124.2 c 0,0.2 -0.2,0.4 -0.4,0.4 -0.2,0 -0.4,-0.2 -0.4,-0.4 0,-0.2 0.2,-0.4 0.4,-0.4 0.3,0.1 0.4,0.2 0.4,0.4 z"
   id="path588" />
	<path
   class="st2"
   d="m 465.6,84.8 c 0,0.2 -0.2,0.4 -0.4,0.4 -0.2,0 -0.4,-0.2 -0.4,-0.4 0,-0.2 0.2,-0.4 0.4,-0.4 0.3,0 0.4,0.1 0.4,0.4 z"
   id="path590" />
	<path
   class="st2"
   d="m 370.8,74.7 c 0,0.2 -0.2,0.4 -0.4,0.4 -0.2,0 -0.4,-0.2 -0.4,-0.4 0,-0.2 0.2,-0.4 0.4,-0.4 0.2,0 0.4,0.2 0.4,0.4 z"
   id="path592" />
	<path
   class="st2"
   d="m 360.7,47.9 c 0,0.2 -0.2,0.4 -0.4,0.4 -0.2,0 -0.4,-0.2 -0.4,-0.4 0,-0.2 0.2,-0.4 0.4,-0.4 0.3,0.1 0.4,0.2 0.4,0.4 z"
   id="path594" />
	<path
   class="st2"
   d="m 458.8,96.8 c 0,0.3 -0.2,0.5 -0.5,0.5 -0.3,0 -0.4,-0.2 -0.4,-0.5 0,-0.3 0.2,-0.4 0.4,-0.4 0.3,-0.1 0.5,0.1 0.5,0.4 z"
   id="path596" />
	<path
   class="st2"
   d="m 422.6,94.9 c 0,0.2 -0.2,0.4 -0.4,0.4 -0.2,0 -0.4,-0.2 -0.4,-0.4 0,-0.2 0.2,-0.4 0.4,-0.4 0.3,0.2 0.4,0.3 0.4,0.4 z"
   id="path598" />
	<path
   class="st2"
   d="m 382.2,117.3 c 0,0.4 -0.3,0.6 -0.6,0.6 -0.4,0 -0.6,-0.3 -0.6,-0.6 0,-0.4 0.3,-0.6 0.6,-0.6 0.3,0 0.6,0.3 0.6,0.6 z"
   id="path600" />
	<path
   class="st2"
   d="m 397.6,130 c 0,0.3 -0.2,0.4 -0.5,0.4 -0.3,0 -0.4,-0.2 -0.4,-0.4 0,-0.2 0.2,-0.4 0.4,-0.4 0.2,0 0.5,0.2 0.5,0.4 z"
   id="path602" />
	<path
   class="st2"
   d="m 379.6,92.3 c 0,0.2 -0.2,0.4 -0.4,0.4 -0.2,0 -0.4,-0.2 -0.4,-0.4 0,-0.2 0.2,-0.4 0.4,-0.4 0.3,0 0.4,0.2 0.4,0.4 z"
   id="path604" />
	<path
   class="st2"
   d="m 374.7,126.3 c 0,0.2 -0.2,0.4 -0.4,0.4 -0.2,0 -0.4,-0.2 -0.4,-0.4 0,-0.2 0.2,-0.4 0.4,-0.4 0.2,0 0.4,0.2 0.4,0.4 z"
   id="path606" />
	<path
   class="st2"
   d="m 347.3,132 c 0,0.2 -0.2,0.4 -0.4,0.4 -0.2,0 -0.4,-0.2 -0.4,-0.4 0,-0.2 0.2,-0.4 0.4,-0.4 0.2,0 0.4,0.2 0.4,0.4 z"
   id="path608" />
	<path
   class="st2"
   d="m 457,75.8 c 0,0.2 -0.2,0.4 -0.4,0.4 -0.2,0 -0.4,-0.2 -0.4,-0.4 0,-0.2 0.2,-0.4 0.4,-0.4 0.3,0.2 0.4,0.2 0.4,0.4 z"
   id="path610" />
	<path
   class="st2"
   d="m 395.1,64.7 c 0,0.2 -0.2,0.4 -0.4,0.4 -0.2,0 -0.4,-0.2 -0.4,-0.4 0,-0.2 0.2,-0.4 0.4,-0.4 0.3,0.1 0.4,0.2 0.4,0.4 z"
   id="path612" />
	<path
   class="st2"
   d="m 455.8,84 c 0,0.2 -0.2,0.4 -0.4,0.4 -0.2,0 -0.4,-0.2 -0.4,-0.4 0,-0.2 0.2,-0.4 0.4,-0.4 0.2,0 0.4,0.2 0.4,0.4 z"
   id="path614" />
	<path
   d="m 444.9,125.9 -11.4,-8.9 -1.6,-7.6 25.9,4.4 c 0.3,0.1 0.6,-0.2 0.6,-0.4 0.1,-0.3 -0.2,-0.6 -0.4,-0.6 l -6.9,-1.2 c 0,-0.1 0,-0.2 0,-0.3 l -34.5,-77 v 0 c -0.2,-0.4 -0.5,-0.5 -0.9,-0.6 l -0.2,-2.6 c 0,-0.3 -0.3,-0.5 -0.6,-0.5 -0.3,0 -0.5,0.3 -0.5,0.6 l 0.1,6.7 c -0.2,0.1 -0.4,0.2 -0.4,0.4 L 378.6,98 371.2,96.7 v 0 c -0.6,-0.1 -1.3,0.4 -1.4,1 -0.1,0.6 0.4,1.3 1,1.4 l 33.5,5.7 -0.1,0.8 -0.7,5.1 -47,19.5 -3.9,-0.5 v 0 c -0.7,-0.1 -1.3,0.4 -1.4,1.2 -0.1,0.7 0.4,1.3 1.2,1.4 l 47.2,5.9 -0.1,0.4 c -1.4,10 -3.8,24.7 -5.2,35.5 0.4,0.1 0.8,0.1 1.2,0.2 1.8,-10.8 3.8,-25.5 5.3,-35.5 l 0.1,-0.5 11.8,1.5 1.1,0.1 -1.8,34.3 c 4.1,-0.4 8,-1.2 11.8,-2.4 l -3.1,-31 12.5,1.6 c 0.9,5.4 2.8,17.3 4.2,24 0.4,-0.2 0.7,-0.4 1.2,-0.6 -1,-6.7 -2.9,-18 -3.8,-23.2 l 2.9,0.4 c 0.9,4.5 2.8,14.8 4.1,21.1 0.4,-0.3 1,-0.6 1.4,-0.9 -1.2,-6.1 -2.9,-15.7 -3.8,-19.9 l 3.6,0.4 c 6.3,0.8 12.5,1.6 18.8,2.5 0.3,-0.4 0.6,-0.8 0.9,-1.2 -6.5,-0.8 -13.1,-1.7 -19.5,-2.6 l -4.2,-0.6 c -1,-4.4 -2,-9 -2.9,-13.4 l -1.9,-8.4 9.9,7.3 c 6.8,5.1 13.6,10.1 20.4,15.1 0.2,-0.3 0.3,-0.4 0.4,-0.7 -6.7,-5.4 -13.3,-10.7 -20,-15.8 z M 380,98.2 l 33.3,-54.8 -8.7,59.4 z m 25.7,6.8 7.4,1.2 v 0.4 l -8.1,3.4 0.6,-4.3 z m -6,31.2 -40.4,-5.7 43.8,-17.3 z m 14.1,1.9 -0.9,-0.1 -11.7,-1.7 3.5,-23.7 8.5,-3.4 0.3,10.6 c -3.6,0.4 -6.1,1.2 -6.1,2.1 0,0.6 1,1.1 2.5,1.5 0.2,2.6 2,4.7 4.5,5.6 z m 0.5,-33.5 -8.4,-1.5 8.7,-59.4 1.1,60.6 c -0.5,0 -0.9,0.1 -1.4,0.3 z m 17.6,11.1 -2.2,-1.7 -0.9,-5.2 1.8,0.3 z m -4.8,-16.5 -6.9,-40.1 8.1,39.2 2,9.2 -1.7,-0.4 z m 1,13.6 -6.6,-5.2 5.9,1 z m 21.6,-1.6 -18.2,-3.4 -2.1,-9.7 -12.1,-56.3 -0.4,-2 z m -23.9,-11.7 1.3,7.6 -6.5,-1.2 -0.1,-0.9 c 0,0 0,0 0,-0.1 l -4,-59 z m -5.3,39.6 -1,-10.2 c 2.3,-0.9 4,-3 4.2,-5.4 1.5,-0.4 2.5,-0.9 2.5,-1.5 0,-0.8 -1.9,-1.5 -4.7,-2 l -0.6,-9.5 v 0 -0.5 l 7.7,5.8 2.5,14.2 c 0.6,3.6 1.2,7.3 1.9,10.9 z m 14.1,-10.6 c 0.9,4.3 1.8,8.6 2.7,12.9 l -2.8,-0.4 c -0.7,-3.8 -1.3,-7.6 -2,-11.4 l -2.2,-12.8 2.3,1.7 z"
   id="path616" />
</g>
<linearGradient
   id="SVGID_2_"
   gradientUnits="userSpaceOnUse"
   x1="12.9723"
   y1="102.3311"
   x2="231.77921"
   y2="102.3311"
   gradientTransform="translate(-3.5915261,3.591525)">
	<stop
   offset="0"
   style="stop-color:#055694"
   id="stop620" />
	<stop
   offset="8.832693e-03"
   style="stop-color:#075795"
   id="stop622" />
	<stop
   offset="0.2072"
   style="stop-color:#246BA6"
   id="stop624" />
	<stop
   offset="0.4067"
   style="stop-color:#347BB6"
   id="stop626" />
	<stop
   offset="0.6057"
   style="stop-color:#3D88C3"
   id="stop628" />
	<stop
   offset="0.8037"
   style="stop-color:#4390CC"
   id="stop630" />
	<stop
   offset="1"
   style="stop-color:#4493D0"
   id="stop632" />
</linearGradient>
<path
   class="st3"
   d="m 227.20848,57.291525 c -4.1,-25.2 -26.6,-44.7 -52.3,-45.3 -15.8,-0.4 -29.9,4.7 -41.9,15.3 -5.2,4.6 -9.8,9.6 -14.3,14.9 -3.7,-4.2 -7.5,-8.6 -11.7,-12.7 -13.500002,-13.2 -29.500006,-19 -47.600006,-17.2 -19.2,1.9 -34.3,12 -43.6,29 -6.1000001,11.3 -7.9000001,24.100001 -5.3,39.200001 1.8,10.8 6.4,21.200004 13.9,31.900004 8.2,11.6 17.9,21.3 26.3,29.4 14.7,14.1 30.1,26.9 44.500008,38.9 4.2,3.4 8.299998,6.9 12.499998,10.3 l 10.9,8.9 5.6,-4.5 c 0.4,-0.3 0.8,-0.6 1.2,-0.9 2.4,-1.9 4.7,-3.9 7.1,-5.8 5.3,-4.4 10.8,-8.9 16.2,-13.4 13.5,-11.3 29.2,-24.6 43.7,-39 8.3,-8.3 17.8,-18.4 25.1,-30.7 9.2,-15.400004 12.5,-31.700004 9.7,-48.300005 z"
   id="path635"
   style="fill:url(#SVGID_2_)" />
<g
   id="g845"
   transform="translate(-3.5915261,3.591525)">
	<path
   class="st2"
   d="m 111.7,84.3 c 0,0.3 -0.3,0.5 -0.5,0.5 -0.3,0 -0.5,-0.3 -0.5,-0.5 0,-0.2 0.3,-0.5 0.5,-0.5 0.3,0 0.5,0.3 0.5,0.5 z"
   id="path637" />
	<path
   class="st2"
   d="m 199.7,68.2 c 0,0.3 -0.3,0.5 -0.6,0.5 -0.3,0 -0.6,-0.3 -0.6,-0.5 0,-0.2 0.3,-0.5 0.6,-0.5 0.3,-0.1 0.6,0.2 0.6,0.5 z"
   id="path639" />
	<path
   class="st2"
   d="m 176.1,45.2 c 0,0.4 -0.3,0.6 -0.6,0.6 -0.3,0 -0.6,-0.3 -0.6,-0.6 0,-0.3 0.3,-0.6 0.6,-0.6 0.3,0 0.6,0.3 0.6,0.6 z"
   id="path641" />
	<path
   class="st2"
   d="m 185.8,59.7 c 0,0.4 -0.3,0.6 -0.6,0.6 -0.3,0 -0.6,-0.3 -0.6,-0.6 0,-0.3 0.3,-0.6 0.6,-0.6 0.3,0.1 0.6,0.4 0.6,0.6 z"
   id="path643" />
	<path
   class="st2"
   d="m 196.5,81.7 c 0,0.4 -0.4,0.7 -0.7,0.7 -0.4,0 -0.7,-0.4 -0.7,-0.7 0,-0.4 0.4,-0.7 0.7,-0.7 0.4,0 0.7,0.3 0.7,0.7 z"
   id="path645" />
	<path
   class="st2"
   d="m 201.5,87.4 c 0,0.4 -0.4,0.7 -0.7,0.7 -0.4,0 -0.7,-0.4 -0.7,-0.7 0,-0.3 0.4,-0.7 0.7,-0.7 0.4,-0.1 0.7,0.2 0.7,0.7 z"
   id="path647" />
	<path
   class="st2"
   d="m 120.8,51.9 c 0,0.4 -0.3,0.6 -0.6,0.6 -0.4,0 -0.6,-0.3 -0.6,-0.6 0,-0.3 0.3,-0.6 0.6,-0.6 0.4,0.1 0.6,0.3 0.6,0.6 z"
   id="path649" />
	<path
   class="st2"
   d="m 199.5,123 c 0,0.3 -0.2,0.4 -0.4,0.4 -0.2,0 -0.4,-0.2 -0.4,-0.4 0,-0.2 0.2,-0.4 0.4,-0.4 0.2,0 0.4,0.1 0.4,0.4 z"
   id="path651" />
	<path
   class="st2"
   d="m 193.7,97.3 c 0,0.4 -0.3,0.6 -0.6,0.6 -0.3,0 -0.6,-0.3 -0.6,-0.6 0,-0.4 0.3,-0.6 0.6,-0.6 0.3,0 0.6,0.3 0.6,0.6 z"
   id="path653" />
	<path
   class="st2"
   d="m 135.6,93.8 c 0,0.4 -0.3,0.6 -0.6,0.6 -0.4,0 -0.6,-0.3 -0.6,-0.6 0,-0.3 0.3,-0.6 0.6,-0.6 0.3,0 0.6,0.3 0.6,0.6 z"
   id="path655" />
	<path
   class="st2"
   d="m 147.7,95.4 c 0,0.4 -0.3,0.6 -0.6,0.6 -0.3,0 -0.6,-0.3 -0.6,-0.6 0,-0.4 0.3,-0.6 0.6,-0.6 0.3,0 0.6,0.3 0.6,0.6 z"
   id="path657" />
	<path
   class="st2"
   d="m 207,71.2 c 0,0.4 -0.3,0.6 -0.6,0.6 -0.3,0 -0.6,-0.3 -0.6,-0.6 0,-0.3 0.3,-0.6 0.6,-0.6 0.3,0 0.6,0.2 0.6,0.6 z"
   id="path659" />
	<path
   class="st2"
   d="m 175.5,84.5 c 0,0.3 -0.2,0.4 -0.4,0.4 -0.2,0 -0.4,-0.2 -0.4,-0.4 0,-0.2 0.2,-0.4 0.4,-0.4 0.1,0 0.4,0.2 0.4,0.4 z"
   id="path661" />
	<path
   class="st2"
   d="m 103.4,63.2 c 0,0.2 -0.1,0.3 -0.3,0.3 -0.2,0 -0.3,-0.1 -0.3,-0.3 0,-0.2 0.1,-0.3 0.3,-0.3 0.2,0 0.3,0.1 0.3,0.3 z"
   id="path663" />
	<path
   class="st2"
   d="m 157.3,80.4 c 0,0.2 -0.1,0.3 -0.3,0.3 -0.2,0 -0.3,-0.2 -0.3,-0.3 0,-0.2 0.2,-0.3 0.3,-0.3 0.1,0 0.3,0.2 0.3,0.3 z"
   id="path665" />
	<path
   class="st2"
   d="m 137.9,123.4 c 0,0.2 -0.2,0.4 -0.4,0.4 -0.2,0 -0.4,-0.2 -0.4,-0.4 0,-0.2 0.2,-0.4 0.4,-0.4 0.2,0.1 0.4,0.2 0.4,0.4 z"
   id="path667" />
	<path
   class="st2"
   d="m 126.2,81.8 c 0,0.3 -0.2,0.4 -0.4,0.4 -0.2,0 -0.4,-0.2 -0.4,-0.4 0,-0.2 0.2,-0.4 0.4,-0.4 0.2,0 0.4,0.1 0.4,0.4 z"
   id="path669" />
	<path
   class="st2"
   d="m 137.6,62.8 c 0,0.4 -0.3,0.6 -0.6,0.6 -0.4,0 -0.6,-0.3 -0.6,-0.6 0,-0.3 0.3,-0.6 0.6,-0.6 0.3,0.1 0.6,0.3 0.6,0.6 z"
   id="path671" />
	<path
   class="st2"
   d="m 142.2,36.6 c 0,0.3 -0.2,0.4 -0.4,0.4 -0.2,0 -0.4,-0.2 -0.4,-0.4 0,-0.3 0.2,-0.4 0.4,-0.4 0.2,0 0.4,0.2 0.4,0.4 z"
   id="path673" />
	<path
   class="st2"
   d="m 110.7,96.3 c 0,0.2 -0.1,0.3 -0.3,0.3 -0.2,0 -0.3,-0.1 -0.3,-0.3 0,-0.2 0.1,-0.3 0.3,-0.3 0.2,0.1 0.3,0.2 0.3,0.3 z"
   id="path675" />
	<path
   class="st2"
   d="m 107.6,103.1 c 0,0.4 -0.4,0.8 -0.8,0.8 -0.4,0 -0.8,-0.4 -0.8,-0.8 0,-0.4 0.4,-0.8 0.8,-0.8 0.4,0 0.8,0.3 0.8,0.8 z"
   id="path677" />
	<path
   class="st2"
   d="m 212.8,78.4 c 0,0.4 -0.4,0.7 -0.8,0.7 -0.4,0 -0.8,-0.4 -0.8,-0.7 0,-0.4 0.4,-0.7 0.8,-0.7 0.4,-0.1 0.8,0.2 0.8,0.7 z"
   id="path679" />
	<path
   class="st2"
   d="m 214,104.2 c 0,0.4 -0.4,0.7 -0.7,0.7 -0.4,0 -0.7,-0.4 -0.7,-0.7 0,-0.4 0.4,-0.7 0.7,-0.7 0.3,0 0.7,0.2 0.7,0.7 z"
   id="path681" />
	<path
   class="st2"
   d="m 97.2,102.4 c 0,0.3 -0.3,0.5 -0.5,0.5 -0.3,0 -0.5,-0.2 -0.5,-0.5 0,-0.3 0.3,-0.5 0.5,-0.5 0.3,-0.1 0.5,0.2 0.5,0.5 z"
   id="path683" />
	<path
   class="st2"
   d="m 208.3,62.1 c 0,0.4 -0.3,0.6 -0.6,0.6 -0.3,0 -0.6,-0.3 -0.6,-0.6 0,-0.3 0.3,-0.6 0.6,-0.6 0.3,0 0.6,0.3 0.6,0.6 z"
   id="path685" />
	<path
   class="st2"
   d="m 131.2,111.8 c 0,0.3 -0.2,0.4 -0.4,0.4 -0.2,0 -0.4,-0.2 -0.4,-0.4 0,-0.2 0.2,-0.4 0.4,-0.4 0.1,0 0.4,0.1 0.4,0.4 z"
   id="path687" />
	<path
   class="st2"
   d="m 123.4,111.1 c 0,0.4 -0.3,0.6 -0.6,0.6 -0.3,0 -0.6,-0.3 -0.6,-0.6 0,-0.4 0.3,-0.6 0.6,-0.6 0.3,0.1 0.6,0.3 0.6,0.6 z"
   id="path689" />
	<path
   class="st2"
   d="m 151.5,41.5 c 0,0.3 -0.2,0.4 -0.4,0.4 -0.2,0 -0.5,-0.2 -0.5,-0.4 0,-0.3 0.2,-0.4 0.5,-0.4 0.2,0 0.4,0.1 0.4,0.4 z"
   id="path691" />
	<path
   class="st2"
   d="m 121.5,71.2 c 0,0.7 -0.5,1.2 -1.2,1.2 -0.7,0 -1.2,-0.5 -1.2,-1.2 0,-0.6 0.5,-1.2 1.2,-1.2 0.7,-0.1 1.2,0.6 1.2,1.2 z"
   id="path693" />
	<path
   class="st2"
   d="m 134.2,54.8 c 0,0.6 -0.5,1.2 -1.2,1.2 -0.6,0 -1.2,-0.5 -1.2,-1.2 0,-0.7 0.5,-1.2 1.2,-1.2 0.7,0 1.2,0.5 1.2,1.2 z"
   id="path695" />
	<path
   class="st2"
   d="m 150.8,66.1 c 0,0.5 -0.4,1 -1,1 -0.5,0 -1,-0.4 -1,-1 0,-0.6 0.4,-1 1,-1 0.5,0 1,0.5 1,1 z"
   id="path697" />
	<path
   class="st2"
   d="m 92.8,87 c 0,0.6 -0.5,1.2 -1.2,1.2 -0.6,0 -1.2,-0.5 -1.2,-1.2 0,-0.6 0.5,-1.2 1.2,-1.2 0.7,0.1 1.2,0.6 1.2,1.2 z"
   id="path699" />
	<path
   class="st2"
   d="m 97.9,61.9 c 0,0.5 -0.4,0.9 -0.9,0.9 -0.5,0 -0.9,-0.4 -0.9,-0.9 0,-0.5 0.4,-0.9 0.9,-0.9 0.5,0 0.9,0.3 0.9,0.9 z"
   id="path701" />
	<path
   class="st2"
   d="m 204.5,89.9 c 0,0.4 -0.3,0.6 -0.6,0.6 -0.3,0 -0.6,-0.3 -0.6,-0.6 0,-0.4 0.3,-0.6 0.6,-0.6 0.4,-0.1 0.6,0.2 0.6,0.6 z"
   id="path703" />
	<path
   class="st2"
   d="m 129.4,35.2 c 0,0.2 -0.2,0.4 -0.4,0.4 -0.2,0 -0.4,-0.2 -0.4,-0.4 0,-0.2 0.2,-0.4 0.4,-0.4 0.3,0 0.4,0.2 0.4,0.4 z"
   id="path705" />
	<path
   class="st2"
   d="m 176.7,60.7 c 0,0.2 -0.1,0.3 -0.3,0.3 -0.2,0 -0.3,-0.1 -0.3,-0.3 0,-0.2 0.1,-0.3 0.3,-0.3 0.1,0 0.3,0.1 0.3,0.3 z"
   id="path707" />
	<path
   class="st2"
   d="m 146.6,35.6 c 0,0.2 0.2,0.4 0.4,0.4 0.2,0 0.4,-0.2 0.4,-0.4 0,-0.2 -0.2,-0.4 -0.4,-0.4 -0.2,0 -0.4,0.2 -0.4,0.4 z"
   id="path709" />
	<path
   class="st2"
   d="m 114,100.1 c 0,0.2 -0.2,0.4 -0.4,0.4 -0.2,0 -0.4,-0.2 -0.4,-0.4 0,-0.2 0.2,-0.4 0.4,-0.4 0.3,0 0.4,0.2 0.4,0.4 z"
   id="path711" />
	<path
   class="st2"
   d="m 95.8,108.3 c 0,0.3 0.2,0.5 0.4,0.5 0.3,0 0.4,-0.2 0.4,-0.5 0,-0.3 -0.2,-0.4 -0.4,-0.4 -0.2,0 -0.4,0.2 -0.4,0.4 z"
   id="path713" />
	<path
   class="st2"
   d="m 81.8,103.9 c 0,0.3 0.2,0.5 0.4,0.5 0.3,0 0.4,-0.2 0.4,-0.5 0,-0.3 -0.2,-0.4 -0.4,-0.4 -0.1,-0.1 -0.4,0.1 -0.4,0.4 z"
   id="path715" />
	<path
   class="st2"
   d="m 102.4,123.4 c 0,0.2 -0.2,0.4 -0.4,0.4 -0.2,0 -0.4,-0.2 -0.4,-0.4 0,-0.2 0.2,-0.4 0.4,-0.4 0.3,0.2 0.4,0.3 0.4,0.4 z"
   id="path717" />
	<path
   class="st2"
   d="m 210.4,84.1 c 0,0.2 -0.2,0.4 -0.4,0.4 -0.2,0 -0.4,-0.2 -0.4,-0.4 0,-0.2 0.2,-0.4 0.4,-0.4 0.3,0 0.4,0.1 0.4,0.4 z"
   id="path719" />
	<path
   class="st2"
   d="m 115.6,73.9 c 0,0.2 -0.2,0.4 -0.4,0.4 -0.2,0 -0.4,-0.2 -0.4,-0.4 0,-0.2 0.2,-0.4 0.4,-0.4 0.2,0 0.4,0.3 0.4,0.4 z"
   id="path721" />
	<path
   class="st2"
   d="m 105.5,47.2 c 0,0.2 -0.2,0.4 -0.4,0.4 -0.2,0 -0.4,-0.2 -0.4,-0.4 0,-0.2 0.2,-0.4 0.4,-0.4 0.3,0 0.4,0.2 0.4,0.4 z"
   id="path723" />
	<path
   class="st2"
   d="m 203.6,96.1 c 0,0.3 -0.2,0.5 -0.5,0.5 -0.3,0 -0.4,-0.2 -0.4,-0.5 0,-0.3 0.2,-0.4 0.4,-0.4 0.3,-0.2 0.5,0.1 0.5,0.4 z"
   id="path725" />
	<path
   class="st2"
   d="m 167.4,94.2 c 0,0.2 -0.2,0.4 -0.4,0.4 -0.2,0 -0.4,-0.2 -0.4,-0.4 0,-0.2 0.2,-0.4 0.4,-0.4 0.3,0.1 0.4,0.2 0.4,0.4 z"
   id="path727" />
	<path
   class="st2"
   d="m 127,116.6 c 0,0.4 -0.3,0.6 -0.6,0.6 -0.4,0 -0.6,-0.3 -0.6,-0.6 0,-0.4 0.3,-0.6 0.6,-0.6 0.3,0 0.6,0.2 0.6,0.6 z"
   id="path729" />
	<path
   class="st2"
   d="m 142.4,129.3 c 0,0.3 -0.2,0.4 -0.5,0.4 -0.3,0 -0.4,-0.2 -0.4,-0.4 0,-0.2 0.2,-0.4 0.4,-0.4 0.2,0 0.5,0.1 0.5,0.4 z"
   id="path731" />
	<path
   class="st2"
   d="m 124.4,91.5 c 0,0.2 -0.2,0.4 -0.4,0.4 -0.2,0 -0.4,-0.2 -0.4,-0.4 0,-0.2 0.2,-0.4 0.4,-0.4 0.3,0.1 0.4,0.3 0.4,0.4 z"
   id="path733" />
	<path
   class="st2"
   d="m 119.5,125.6 c 0,0.2 -0.2,0.4 -0.4,0.4 -0.2,0 -0.4,-0.2 -0.4,-0.4 0,-0.2 0.2,-0.4 0.4,-0.4 0.2,0 0.4,0.2 0.4,0.4 z"
   id="path735" />
	<path
   class="st2"
   d="m 92.1,131.3 c 0,0.2 -0.2,0.4 -0.4,0.4 -0.2,0 -0.4,-0.2 -0.4,-0.4 0,-0.2 0.2,-0.4 0.4,-0.4 0.2,0 0.4,0.2 0.4,0.4 z"
   id="path737" />
	<path
   class="st2"
   d="m 201.8,75.1 c 0,0.2 -0.2,0.4 -0.4,0.4 -0.2,0 -0.4,-0.2 -0.4,-0.4 0,-0.2 0.2,-0.4 0.4,-0.4 0.3,0.1 0.4,0.2 0.4,0.4 z"
   id="path739" />
	<path
   class="st2"
   d="m 139.9,64 c 0,0.2 -0.2,0.4 -0.4,0.4 -0.2,0 -0.4,-0.2 -0.4,-0.4 0,-0.2 0.2,-0.4 0.4,-0.4 0.3,0 0.4,0.2 0.4,0.4 z"
   id="path741" />
	<path
   class="st2"
   d="m 200.6,83.3 c 0,0.2 -0.2,0.4 -0.4,0.4 -0.2,0 -0.4,-0.2 -0.4,-0.4 0,-0.2 0.2,-0.4 0.4,-0.4 0.2,0 0.4,0.2 0.4,0.4 z"
   id="path743" />
	<path
   d="m 189.7,125.1 -11.4,-8.9 -1.6,-7.6 25.9,4.4 c 0.3,0.1 0.6,-0.2 0.6,-0.4 0.1,-0.3 -0.2,-0.6 -0.4,-0.6 l -6.9,-1.2 c 0,-0.1 0,-0.2 0,-0.3 l -34.5,-77 v 0 c -0.2,-0.4 -0.5,-0.5 -0.9,-0.6 l -0.2,-2.6 c 0,-0.3 -0.3,-0.5 -0.6,-0.5 -0.3,0 -0.5,0.3 -0.5,0.6 l 0.1,6.7 c -0.2,0.1 -0.4,0.2 -0.4,0.4 L 123.4,97.2 116,95.9 v 0 c -0.6,-0.1 -1.3,0.4 -1.4,1 -0.1,0.6 0.4,1.3 1,1.4 l 33.5,5.7 -0.1,0.8 -0.7,5.1 -47,19.5 -3.9,-0.5 v 0 c -0.7,-0.1 -1.3,0.4 -1.4,1.2 -0.1,0.8 0.4,1.3 1.2,1.4 l 47.2,5.9 -0.1,0.4 c -1.4,10 -4.2,34.5 -5.6,45.3 0.4,-0.3 0.8,-0.6 1.1,-0.9 1.8,-10.8 4.3,-34.2 5.8,-44.1 l 0.1,-0.5 11.8,1.5 1.1,0.1 -1.5,28.7 c 3.5,-2.9 7.3,-6.1 10.3,-8.8 l -1.9,-19 12.5,1.6 c 0.3,1.3 0.7,5 1.2,7.1 0.4,-0.3 1,-0.9 1.3,-1.2 -0.5,-2.8 -0.1,-0.5 -1,-5.7 l 2.9,0.4 c 0.2,0.7 -0.1,-0.2 0.6,3 0.5,-0.5 0.9,-0.9 1.4,-1.2 0,-0.1 -0.2,-1.3 -0.3,-1.5 0,0 0.2,0 1.7,0.2 0.3,-0.3 0.9,-0.8 1.2,-1.1 -2.6,-0.3 -3.2,-0.5 -3.2,-0.5 -1,-4.4 -2,-9 -2.9,-13.4 l -1.9,-8.4 9.9,7.3 c 6.8,5.1 4.9,3.6 11.8,8.6 0.2,-0.3 0.3,-0.4 0.4,-0.7 -6.8,-5.6 -4.8,-4.3 -11.4,-9.5 z m -64.9,-27.6 33.3,-54.8 -8.7,59.4 z m 25.7,6.7 7.4,1.2 v 0.4 l -8.1,3.4 0.6,-4.3 z m -6,31.2 -40.4,-5.7 43.8,-17.3 z m 14.1,2 -0.9,-0.1 -11.7,-1.7 3.5,-23.7 8.5,-3.4 0.3,10.6 c -3.6,0.4 -6.1,1.2 -6.1,2.1 0,0.6 1,1.1 2.5,1.5 0.2,2.6 2,4.7 4.5,5.6 z m 0.5,-33.5 -8.4,-1.5 8.7,-59.4 1.1,60.6 c -0.5,-0.1 -0.9,0.1 -1.4,0.3 z m 17.6,11.1 -2.2,-1.7 -0.9,-5.2 1.8,0.3 z m -4.8,-16.5 -6.9,-40.1 8.1,39.2 2,9.2 -1.7,-0.4 z m 1,13.6 -6.6,-5.2 5.9,1 z m 21.6,-1.6 -18.2,-3.4 -2.1,-9.7 -12.2,-56.3 -0.4,-2 z m -23.9,-11.8 1.3,7.6 -6.5,-1.2 -0.1,-0.9 c 0,0 0,0 0,-0.1 l -4,-59 z m -5.4,39.7 -1,-10.2 c 2.3,-0.9 4,-3 4.2,-5.4 1.5,-0.4 2.5,-0.9 2.5,-1.5 0,-0.8 -1.9,-1.5 -4.7,-2 l -0.6,-9.5 v 0 -0.5 l 7.7,5.8 2.5,14.2 c 0.6,3.6 1.2,7.3 1.9,10.9 z m 14.2,-10.6 c 0.9,4.3 1.8,8.6 2.7,12.9 l -2.8,-0.4 c -0.7,-3.8 -1.3,-7.6 -2,-11.4 l -2.2,-12.8 2.3,1.7 z"
   id="path745" />
	<path
   class="st2"
   d="m 65.3,22.9 c 0,0.3 -0.3,0.5 -0.6,0.5 -0.3,0 -0.6,-0.3 -0.6,-0.5 0,-0.2 0.3,-0.5 0.6,-0.5 0.2,-0.1 0.6,0.2 0.6,0.5 z"
   id="path747" />
	<path
   class="st2"
   d="m 70.4,18.1 c 0,0.4 -0.4,0.7 -0.7,0.7 -0.4,0 -0.7,-0.4 -0.7,-0.7 0,-0.4 0.4,-0.7 0.7,-0.7 0.4,0 0.7,0.3 0.7,0.7 z"
   id="path749" />
	<path
   class="st2"
   d="m 78.4,43.2 c 0,0.4 -0.4,0.7 -0.7,0.7 -0.4,0 -0.7,-0.4 -0.7,-0.7 0,-0.4 0.4,-0.7 0.7,-0.7 0.4,0 0.7,0.3 0.7,0.7 z"
   id="path751" />
	<path
   class="st2"
   d="m 64,54.8 c 0,0.4 -0.3,0.6 -0.6,0.6 -0.4,0 -0.6,-0.3 -0.6,-0.6 0,-0.4 0.3,-0.6 0.6,-0.6 0.3,-0.1 0.6,0.2 0.6,0.6 z"
   id="path753" />
	<path
   class="st2"
   d="m 80.2,30.7 c 0,0.4 -0.3,0.6 -0.6,0.6 -0.3,0 -0.6,-0.3 -0.6,-0.6 0,-0.3 0.3,-0.6 0.6,-0.6 0.3,0 0.6,0.3 0.6,0.6 z"
   id="path755" />
	<path
   class="st2"
   d="m 86,37.9 c 0,0.4 -0.4,0.7 -0.8,0.7 -0.4,0 -0.8,-0.4 -0.8,-0.7 0,-0.4 0.4,-0.7 0.8,-0.7 0.4,-0.1 0.8,0.3 0.8,0.7 z"
   id="path757" />
	<path
   class="st2"
   d="m 87.2,63.7 c 0,0.4 -0.4,0.7 -0.7,0.7 -0.4,0 -0.7,-0.4 -0.7,-0.7 0,-0.4 0.4,-0.7 0.7,-0.7 0.3,0 0.7,0.2 0.7,0.7 z"
   id="path759" />
	<path
   class="st2"
   d="m 77.7,49.4 c 0,0.4 -0.3,0.6 -0.6,0.6 -0.4,0 -0.6,-0.3 -0.6,-0.6 0,-0.4 0.3,-0.6 0.6,-0.6 0.3,0 0.6,0.2 0.6,0.6 z"
   id="path761" />
	<path
   class="st2"
   d="m 83.6,43.6 c 0,0.2 -0.2,0.4 -0.4,0.4 -0.2,0 -0.4,-0.2 -0.4,-0.4 0,-0.2 0.2,-0.4 0.4,-0.4 0.3,0 0.4,0.1 0.4,0.4 z"
   id="path763" />
	<path
   class="st2"
   d="m 76.8,55.6 c 0,0.3 -0.2,0.5 -0.5,0.5 -0.3,0 -0.4,-0.2 -0.4,-0.5 0,-0.3 0.2,-0.4 0.4,-0.4 0.2,-0.1 0.5,0.1 0.5,0.4 z"
   id="path765" />
	<path
   class="st2"
   d="m 74.9,34.6 c 0,0.2 -0.2,0.4 -0.4,0.4 -0.2,0 -0.4,-0.2 -0.4,-0.4 0,-0.2 0.2,-0.4 0.4,-0.4 0.3,0.2 0.4,0.2 0.4,0.4 z"
   id="path767" />
	<path
   class="st2"
   d="m 72.7,41 c 0,0.2 -0.2,0.4 -0.4,0.4 -0.2,0 -0.3,-0.2 -0.3,-0.4 0,-0.2 0.2,-0.4 0.4,-0.4 0.2,0 0.3,0.2 0.3,0.4 z"
   id="path769" />
	<path
   class="st2"
   d="m 44,23.9 c 0,0.3 -0.3,0.5 -0.6,0.5 -0.4,0 -0.6,-0.3 -0.6,-0.5 0,-0.3 0.3,-0.5 0.6,-0.5 0.3,0 0.6,0.3 0.6,0.5 z"
   id="path771" />
	<path
   class="st2"
   d="m 29.1,43.2 c 0,0.4 -0.4,0.7 -0.7,0.7 -0.4,0 -0.7,-0.4 -0.7,-0.7 0,-0.4 0.4,-0.7 0.7,-0.7 0.3,0 0.7,0.4 0.7,0.7 z"
   id="path773" />
	<path
   class="st2"
   d="m 36.8,54.4 c 0,0.4 -0.4,0.7 -0.7,0.7 -0.4,0 -0.7,-0.4 -0.7,-0.7 0,-0.3 0.4,-0.7 0.7,-0.7 0.5,-0.1 0.7,0.2 0.7,0.7 z"
   id="path775" />
	<path
   class="st2"
   d="m 28.4,66.7 c 0,0.4 -0.3,0.6 -0.6,0.6 -0.4,0 -0.6,-0.3 -0.6,-0.6 0,-0.4 0.3,-0.6 0.6,-0.6 0.3,-0.1 0.6,0.2 0.6,0.6 z"
   id="path777" />
	<path
   class="st2"
   d="m 48,37.5 c 0,0.4 -0.3,0.6 -0.6,0.6 -0.3,0 -0.6,-0.3 -0.6,-0.6 0,-0.3 0.3,-0.6 0.6,-0.6 0.3,0 0.6,0.2 0.6,0.6 z"
   id="path779" />
	<path
   class="st2"
   d="m 53.8,44.7 c 0,0.4 -0.4,0.7 -0.8,0.7 -0.4,0 -0.8,-0.4 -0.8,-0.7 0,-0.4 0.4,-0.7 0.8,-0.7 0.4,-0.1 0.8,0.2 0.8,0.7 z"
   id="path781" />
	<path
   class="st2"
   d="m 61.7,43.9 c 0,0.4 -0.4,0.7 -0.8,0.7 -0.4,0 -0.8,-0.4 -0.8,-0.7 0,-0.4 0.4,-0.7 0.8,-0.7 0.5,-0.1 0.8,0.3 0.8,0.7 z"
   id="path783" />
	<path
   class="st2"
   d="m 51.8,71.2 c 0,0.4 -0.4,0.7 -0.7,0.7 -0.4,0 -0.7,-0.4 -0.7,-0.7 0,-0.4 0.4,-0.7 0.7,-0.7 0.3,0 0.7,0.2 0.7,0.7 z"
   id="path785" />
	<path
   class="st2"
   d="m 44,57.4 c 0,0.4 -0.3,0.6 -0.6,0.6 -0.4,0 -0.6,-0.3 -0.6,-0.6 0,-0.4 0.3,-0.6 0.6,-0.6 0.4,-0.1 0.6,0.2 0.6,0.6 z"
   id="path787" />
	<path
   class="st2"
   d="m 48.4,50.4 c 0,0.2 -0.2,0.4 -0.4,0.4 -0.2,0 -0.4,-0.2 -0.4,-0.4 0,-0.2 0.2,-0.4 0.4,-0.4 0.3,0 0.4,0.1 0.4,0.4 z"
   id="path789" />
	<path
   class="st2"
   d="m 67.9,63.2 c 0,0.2 -0.2,0.4 -0.4,0.4 -0.2,0 -0.4,-0.2 -0.4,-0.4 0,-0.2 0.2,-0.4 0.4,-0.4 0.3,0 0.4,0.1 0.4,0.4 z"
   id="path791" />
	<path
   class="st2"
   d="m 34.5,88.2 c 0,0.2 -0.2,0.4 -0.4,0.4 -0.2,0 -0.4,-0.2 -0.4,-0.4 0,-0.2 0.2,-0.4 0.4,-0.4 0.3,0 0.4,0.1 0.4,0.4 z"
   id="path793" />
	<path
   class="st2"
   d="m 59.8,64 c 0,0.2 -0.2,0.4 -0.4,0.4 -0.2,0 -0.4,-0.2 -0.4,-0.4 0,-0.2 0.2,-0.4 0.4,-0.4 0.3,0 0.4,0.1 0.4,0.4 z"
   id="path795" />
	<path
   class="st2"
   d="m 40.9,81 c 0,0.2 -0.2,0.4 -0.4,0.4 -0.2,0 -0.4,-0.2 -0.4,-0.4 0,-0.2 0.2,-0.4 0.4,-0.4 0.3,0 0.4,0.1 0.4,0.4 z"
   id="path797" />
	<path
   class="st2"
   d="m 35.8,96.7 c 0,0.2 -0.2,0.4 -0.4,0.4 -0.2,0 -0.4,-0.2 -0.4,-0.4 0,-0.2 0.2,-0.4 0.4,-0.4 0.3,0 0.4,0.1 0.4,0.4 z"
   id="path799" />
	<path
   class="st2"
   d="m 38.3,65.4 c 0,0.3 -0.2,0.5 -0.5,0.5 -0.3,0 -0.4,-0.2 -0.4,-0.5 0,-0.3 0.2,-0.4 0.4,-0.4 0.3,-0.1 0.5,0.2 0.5,0.4 z"
   id="path801" />
	<path
   class="st2"
   d="m 48.9,100.4 c 0,0.3 -0.2,0.5 -0.5,0.5 -0.3,0 -0.4,-0.2 -0.4,-0.5 0,-0.3 0.2,-0.4 0.4,-0.4 0.2,-0.1 0.5,0.1 0.5,0.4 z"
   id="path803" />
	<path
   class="st2"
   d="m 65.9,46.1 c 0,0.3 -0.2,0.5 -0.5,0.5 -0.3,0 -0.4,-0.2 -0.4,-0.5 0,-0.3 0.2,-0.4 0.4,-0.4 0.2,-0.1 0.5,0.2 0.5,0.4 z"
   id="path805" />
	<path
   class="st2"
   d="m 38.7,35.6 c 0,0.2 -0.2,0.4 -0.4,0.4 -0.2,0 -0.3,-0.3 -0.3,-0.4 0,-0.2 0.2,-0.4 0.4,-0.4 0.2,0.1 0.3,0.2 0.3,0.4 z"
   id="path807" />
	<path
   class="st2"
   d="m 52.6,27.7 c 0,0.2 -0.2,0.4 -0.4,0.4 -0.2,0 -0.4,-0.2 -0.4,-0.4 0,-0.2 0.2,-0.4 0.4,-0.4 0.3,0.1 0.4,0.2 0.4,0.4 z"
   id="path809" />
	<path
   class="st2"
   d="m 41.6,49.6 c 0,0.2 -0.2,0.4 -0.4,0.4 -0.2,0 -0.4,-0.2 -0.4,-0.4 0,-0.2 0.2,-0.4 0.4,-0.4 0.2,0 0.4,0.2 0.4,0.4 z"
   id="path811" />
	<path
   class="st2"
   d="m 51,61.5 c 0,0.2 -0.2,0.4 -0.4,0.4 -0.2,0 -0.4,-0.2 -0.4,-0.4 0,-0.2 0.2,-0.4 0.4,-0.4 0.2,0 0.4,0.2 0.4,0.4 z"
   id="path813" />
	<path
   class="st2"
   d="m 63.3,83.8 c 0,0.3 -0.3,0.5 -0.6,0.5 -0.3,0 -0.6,-0.3 -0.6,-0.5 0,-0.3 0.3,-0.5 0.6,-0.5 0.3,-0.1 0.6,0.2 0.6,0.5 z"
   id="path815" />
	<path
   class="st2"
   d="m 60.1,97.3 c 0,0.4 -0.4,0.7 -0.7,0.7 -0.4,0 -0.7,-0.4 -0.7,-0.7 0,-0.4 0.4,-0.7 0.7,-0.7 0.3,0 0.7,0.3 0.7,0.7 z"
   id="path817" />
	<path
   class="st2"
   d="m 65.1,103 c 0,0.4 -0.4,0.7 -0.7,0.7 -0.4,0 -0.7,-0.4 -0.7,-0.7 0,-0.3 0.4,-0.7 0.7,-0.7 0.5,-0.1 0.7,0.2 0.7,0.7 z"
   id="path819" />
	<path
   class="st2"
   d="m 57.3,112.9 c 0,0.4 -0.3,0.6 -0.6,0.6 -0.4,0 -0.6,-0.3 -0.6,-0.6 0,-0.4 0.3,-0.6 0.6,-0.6 0.3,0 0.6,0.3 0.6,0.6 z"
   id="path821" />
	<path
   class="st2"
   d="m 70.6,86.8 c 0,0.4 -0.3,0.6 -0.6,0.6 -0.3,0 -0.6,-0.3 -0.6,-0.6 0,-0.3 0.3,-0.6 0.6,-0.6 0.3,0 0.6,0.2 0.6,0.6 z"
   id="path823" />
	<path
   class="st2"
   d="m 76.4,94 c 0,0.4 -0.4,0.7 -0.8,0.7 -0.4,0 -0.8,-0.4 -0.8,-0.7 0,-0.4 0.4,-0.7 0.8,-0.7 0.4,-0.1 0.8,0.2 0.8,0.7 z"
   id="path825" />
	<path
   class="st2"
   d="m 77.6,119.8 c 0,0.4 -0.4,0.7 -0.7,0.7 -0.4,0 -0.7,-0.4 -0.7,-0.7 0,-0.4 0.4,-0.7 0.7,-0.7 0.3,0 0.7,0.2 0.7,0.7 z"
   id="path827" />
	<path
   class="st2"
   d="m 68.1,105.4 c 0,0.4 -0.3,0.6 -0.6,0.6 -0.4,0 -0.6,-0.3 -0.6,-0.6 0,-0.3 0.3,-0.6 0.6,-0.6 0.4,0 0.6,0.3 0.6,0.6 z"
   id="path829" />
	<path
   class="st2"
   d="m 74,99.7 c 0,0.2 -0.2,0.4 -0.4,0.4 -0.2,0 -0.4,-0.2 -0.4,-0.4 0,-0.2 0.2,-0.4 0.4,-0.4 0.3,0 0.4,0.1 0.4,0.4 z"
   id="path831" />
	<path
   class="st2"
   d="m 67.2,111.7 c 0,0.3 -0.2,0.5 -0.5,0.5 -0.3,0 -0.4,-0.2 -0.4,-0.5 0,-0.3 0.2,-0.4 0.4,-0.4 0.3,-0.2 0.5,0.1 0.5,0.4 z"
   id="path833" />
	<path
   class="st2"
   d="m 65.4,90.7 c 0,0.2 -0.2,0.4 -0.4,0.4 -0.2,0 -0.4,-0.2 -0.4,-0.4 0,-0.2 0.2,-0.4 0.4,-0.4 0.3,0.1 0.4,0.2 0.4,0.4 z"
   id="path835" />
	<path
   class="st2"
   d="m 71,70.6 c 0,0.3 -0.3,0.5 -0.6,0.5 -0.3,0 -0.6,-0.3 -0.6,-0.5 0,-0.3 0.3,-0.5 0.6,-0.5 0.2,-0.1 0.6,0.2 0.6,0.5 z"
   id="path837" />
	<path
   class="st2"
   d="m 78.3,73.6 c 0,0.4 -0.3,0.6 -0.6,0.6 -0.3,0 -0.7,-0.3 -0.7,-0.6 0,-0.3 0.3,-0.6 0.6,-0.6 0.3,0 0.7,0.2 0.7,0.6 z"
   id="path839" />
	<path
   class="st2"
   d="m 73,77.5 c 0,0.2 -0.2,0.4 -0.4,0.4 -0.2,0 -0.4,-0.2 -0.4,-0.4 0,-0.2 0.2,-0.4 0.4,-0.4 0.3,0.1 0.4,0.2 0.4,0.4 z"
   id="path841" />
	<path
   class="st2"
   d="m 64.2,98.9 c 0,0.2 -0.2,0.4 -0.4,0.4 -0.2,0 -0.4,-0.2 -0.4,-0.4 0,-0.2 0.2,-0.4 0.4,-0.4 0.3,0 0.4,0.2 0.4,0.4 z"
   id="path843" />
</g>
<g
   id="g849"
   transform="translate(-3.5915261,3.591525)">
	<path
   class="st0"
   d="M 227.4,32.6 C 216.6,15.6 201,6.2 180.8,4.4 170.4,3.5 160.3,5.1 150.7,9.3 c -8.6,3.8 -15.8,9.4 -22.4,16.1 -1.9,2 -3.8,4 -5.8,6.1 -0.4,-0.4 -0.7,-0.8 -1.1,-1.1 -2.5,-2.6 -5,-5.3 -7.6,-7.8 C 99.2,8.5 81.7,2.2 61.3,4.8 44.3,7 30.6,15.1 20.4,29 9.6,43.6 7.2,60.1 9.9,77.7 c 1.8,12 6.8,22.8 13.7,32.7 7.9,11.4 17.4,21.4 27.4,31 13.6,13.1 28,25.4 42.6,37.6 9.4,7.8 18.8,15.5 28.2,23.2 0.7,0.6 1.2,0.6 1.9,0 0.9,-0.8 1.8,-1.6 2.8,-2.3 18.6,-15.2 37.3,-30.5 55.2,-46.6 12.2,-11 24.1,-22.3 34.4,-35.1 11.6,-14.3 19.5,-30.1 20.4,-49 0.4,-13.1 -2,-25.5 -9.1,-36.6 z m -7.1,69.3 c -7.2,12.1 -16.6,22.1 -24.8,30.3 -14.3,14.3 -29.8,27.4 -43.2,38.6 -5.3,4.5 -10.8,8.9 -16,13.3 -2.3,1.9 -4.7,3.8 -7,5.8 -0.4,0.3 -0.7,0.6 -1.1,0.9 l -5.6,4.5 -10.8,-8.9 C 107.6,183 103.5,179.6 99.4,176.2 85.1,164.4 69.9,151.6 55.3,137.7 47,129.7 37.3,120 29.2,108.6 21.6,98 17.1,87.7 15.3,77 12.8,62 14.5,49.3 20.6,38.1 29.8,21.2 44.7,11.3 63.7,9.4 c 17.9,-1.8 33.7,3.9 47.1,17.1 4.1,4.1 7.9,8.4 11.6,12.5 4.4,-5.2 9,-10.2 14.1,-14.7 11.9,-10.4 25.9,-15.5 41.5,-15.1 25.4,0.7 47.7,19.9 51.8,44.9 2.8,16.4 -0.4,32.5 -9.5,47.8 z"
   id="path847" />
</g>
<g
   id="g853">
	<path
   class="st0"
   d="m 388,74.9 c 2,-2.1 3.9,-4.2 5.8,-6.2 6.6,-6.7 13.9,-12.4 22.6,-16.2 9.7,-4.2 19.8,-5.9 30.3,-5 20.3,1.8 36.1,11.3 47,28.5 7.2,11.2 9.6,23.7 9,37 -0.9,19 -8.9,35 -20.6,49.5 -10.5,12.9 -22.4,24.3 -34.8,35.4 -18.1,16.3 -36.9,31.6 -55.7,47 -0.9,0.8 -1.9,1.5 -2.8,2.4 -0.7,0.7 -1.2,0.6 -1.9,0 -9.5,-7.8 -19,-15.6 -28.4,-23.5 -14.7,-12.3 -29.3,-24.7 -43.1,-38 -10.1,-9.7 -19.7,-19.7 -27.6,-31.3 -6.9,-10 -12,-20.9 -13.8,-33 -2.7,-17.8 -0.2,-34.5 10.6,-49.2 10.3,-14 24.1,-22.2 41.3,-24.4 20.6,-2.6 38.3,3.8 53.2,18 2.6,2.5 5.1,5.2 7.7,7.9 0.5,0.3 0.8,0.7 1.2,1.1 z m 0,155.6 c 0.6,-0.5 1.2,-0.9 1.7,-1.3 7.7,-6.4 15.5,-12.7 23.2,-19.2 14.8,-12.4 29.5,-24.9 43.1,-38.5 8.9,-8.9 17.4,-18.2 23.9,-29.1 7.9,-13.3 11.2,-27.5 8.7,-42.9 C 485,77.9 465.8,61.4 444,60.8 430.1,60.4 418,65 407.5,74.1 c -5.8,5.1 -10.8,10.9 -15.8,16.8 -1.2,1.4 -2.4,2.8 -3.6,4.3 -0.4,-0.5 -0.7,-0.8 -1,-1.1 C 381.6,88.1 376.4,81.7 370.6,76 359.2,64.8 345.5,59.4 329.4,61 312.6,62.7 300.1,71.1 292,85.9 c -5.9,10.7 -6.5,22.3 -4.5,34.1 1.8,10.6 6.4,19.9 12.6,28.6 7.4,10.4 16.2,19.5 25.3,28.2 14.1,13.5 29.1,26.1 44.1,38.5 6.3,5.1 12.4,10.1 18.5,15.2 z"
   id="path851" />
</g>
</svg>
